<svg id="Layer_1" data-name="Layer 1" xmlns="http://www.w3.org/2000/svg" viewBox="0 0 994.93 1333.9"><defs><style>.cls-1,.cls-12,.cls-2,.cls-5,.cls-8{fill:#fff;}.cls-1,.cls-2,.cls-4{stroke:#777;}.cls-1,.cls-12,.cls-13,.cls-4{stroke-linecap:round;}.cls-1,.cls-11,.cls-12,.cls-13,.cls-2,.cls-4,.cls-5,.cls-9{stroke-miterlimit:10;}.cls-1,.cls-12,.cls-13,.cls-4,.cls-5{stroke-width:6px;}.cls-3{fill:#efefef;}.cls-11,.cls-13,.cls-4,.cls-9{fill:none;}.cls-12,.cls-13,.cls-5{stroke:#5f3eaf;}.cls-6{fill:#ffcfc9;}.cls-7{fill:#7d4cdb;}.cls-9{stroke:#d8baa3;stroke-width:4px;}.cls-10{fill:#723701;}.cls-11{stroke:#723701;stroke-width:3px;}</style></defs><g id="Layer_2" data-name="Layer 2"><g id="Слой_1" data-name="Слой 1"><g id="_2" data-name=" 2"><g id="COMPUTER"><path class="cls-1" d="M487.29,548.34H59.87" transform="translate(0.02 0)"/><path class="cls-1" d="M59,508.14H487.29" transform="translate(0.02 0)"/><polyline class="cls-2" points="385.26 745.52 385.26 549 423.93 549 423.93 744.62"/><polygon class="cls-3" points="385.26 561.34 385.26 549 423.93 549 423.93 591.89 385.26 561.34"/><polyline class="cls-4" points="385.26 730.52 385.26 549 423.93 549 423.93 742.72"/><polygon class="cls-5" points="425.5 490.48 425.5 501.36 268.27 463.15 111.04 501.36 111.04 490.48 251.81 444.86 251.81 310.19 286.78 310.19 286.78 445.53 425.5 490.48"/><path class="cls-5" d="M513.14,401.68H65.26c-5.28,0-9.61-4.48-10-10.18a17.75,17.75,0,0,0-.2-1.77L3.22,108.8a11.38,11.38,0,0,1,.77-7,10,10,0,0,1,8.94-6H460.81c5.28,0,9.61,4.49,10,10.19a17.23,17.23,0,0,0,.2,1.76l51.82,280.94a11.38,11.38,0,0,1-.77,7A10,10,0,0,1,513.14,401.68Z" transform="translate(0.02 0)"/><path class="cls-5" d="M500.69,388.18H73.43c-5.1,0-9.23-4.54-9.23-10.16l-48-260.24c0-5.61,4.13-10.16,9.23-10.16H452.68c5.09,0,9.23,4.55,9.23,10.16l48,260.24C509.91,383.64,505.78,388.18,500.69,388.18Z" transform="translate(0.02 0)"/></g><g id="WOMAN"><g id="LEGS"><g id="RIGHT"><g id="FOOT"><path class="cls-6" d="M629,1258.75l13.33-91.54c-44.39,5-64.34,0-64.34,0l15.18,69.54c-.33,11.28-24,56.5-36.52,60.32S601.44,1312.5,629,1258.75Z" transform="translate(0.02 0)"/><path d="M523.76,1333.07H632.63s18.58-35,15.68-58.3c-3.71-30-20.26-33.51-20.26-33.51-15.27,0-11.34,38.08-40.48,51.35-14.52,6.61-26.94,2.46-39.5,6.29C520,1307.46,523.76,1333.07,523.76,1333.07Z" transform="translate(0.02 0)"/></g><path id="LEG" d="M462.4,835.7c9.67,17.72,71.6,142.19,115.6,331.51,0,0,20.63,6.51,64.34,0,0,0,39.81-229.12-4.07-302.33Z" transform="translate(0.02 0)"/></g><g id="LEFT"><path id="LEG-2" d="M808,601.81s62.47,156.46,29.07,216.12C781.41,917.28,462.4,835.7,462.4,835.7s69.65,85.57-11.36,330c0,0-2.92,9.94-65.51,2,0,0-76.72-352.5-76.73-427.62,0-61.5,110-80.64,289.87-67.72,0,0,23.76-21.34,41.66-66C640.33,606.3,692.73,622.68,808,601.81Z" transform="translate(0.02 0)"/><g id="FOOT-2"><path class="cls-6" d="M438,1258.75l13.33-91.54c-44.39,5-65.34,0-65.34,0l16.18,69.54c-.33,11.28-24,56.5-36.52,60.32S410.44,1312.5,438,1258.75Z" transform="translate(0.02 0)"/><path d="M332.76,1333.07H441.63s18.58-35,15.68-58.3c-3.71-30-20.26-33.51-20.26-33.51-15.27,0-11.34,38.08-40.48,51.35-14.52,6.61-26.94,2.46-39.5,6.29C329,1307.46,332.76,1333.07,332.76,1333.07Z" transform="translate(0.02 0)"/></g></g></g><g id="BLOUSE"><path id="BLOUSE-2" class="cls-7" d="M854.82,383.62c-17.54,71.66-42,196.86-42.69,213.84s-119.65,27.83-172.6,12.22c0,0-14.63-84.14-18.29-129.72-27.75,39-56.06,69.3-75.3,69.3-70.6,0-187.06-39.59-195.89-49.09l5.13-26.7c29.19.68,172.43-16.56,172.43-16.56s56.92-144.82,94.14-174.73l.16-.14c24.44-22.56,87.89-29.79,102.11-33.29,14.71-3.62,89.73-13.8,89.73-13.8C839.2,251.39,870.43,319.8,854.82,383.62Z" transform="translate(0.02 0)"/><g id="PATTERN"><path class="cls-8" d="M722.32,249.33l.53-.13a5.33,5.33,0,0,1,.09,1.13" transform="translate(0.02 0)"/><path class="cls-8" d="M790.8,250.33" transform="translate(0.02 0)"/><path class="cls-8" d="M774.38,250.33" transform="translate(0.02 0)"/><circle class="cls-8" cx="782.61" cy="440.81" r="8.21"/><circle class="cls-8" cx="816.55" cy="440.81" r="8.21"/><circle class="cls-8" cx="765.65" cy="464.89" r="8.21"/><circle class="cls-8" cx="799.58" cy="464.89" r="8.21"/><path class="cls-8" d="M836.61,457.29q-1.67,7.89-3.32,15.8a8.21,8.21,0,0,1,.39-16.42A8.4,8.4,0,0,1,836.61,457.29Z" transform="translate(0.02 0)"/><circle class="cls-8" cx="748.68" cy="487.88" r="8.21"/><circle class="cls-8" cx="782.61" cy="487.88" r="8.21"/><circle class="cls-8" cx="816.55" cy="487.88" r="8.21"/><path class="cls-8" d="M706,513.06" transform="translate(0.02 0)"/><path class="cls-8" d="M689.55,513.06" transform="translate(0.02 0)"/><circle class="cls-8" cx="731.71" cy="513.06" r="8.21"/><circle class="cls-8" cx="765.65" cy="513.06" r="8.21"/><circle class="cls-8" cx="799.58" cy="513.06" r="8.21"/><circle class="cls-8" cx="714.74" cy="536.05" r="8.21"/><circle class="cls-8" cx="748.68" cy="536.05" r="8.21"/><circle class="cls-8" cx="782.61" cy="536.05" r="8.21"/><path class="cls-8" d="M821.9,529.84c-.92,4.8-1.81,9.46-2.65,13.94a7.87,7.87,0,0,1-2.72.48,8.22,8.22,0,1,1,5.37-14.42Z" transform="translate(0.02 0)"/><circle class="cls-8" cx="731.71" cy="560.13" r="8.21"/><circle class="cls-8" cx="765.65" cy="560.13" r="8.21"/><circle class="cls-8" cx="799.58" cy="560.13" r="8.21"/><circle class="cls-8" cx="714.74" cy="583.12" r="8.21"/><circle class="cls-8" cx="748.68" cy="583.12" r="8.21"/><circle class="cls-8" cx="782.61" cy="583.12" r="8.21"/><path class="cls-8" d="M813.57,575.46c-.92,5.51-1.67,10.25-2.19,14a8.21,8.21,0,0,1,2.19-14Z" transform="translate(0.02 0)"/><circle class="cls-8" cx="697.78" cy="608.3" r="8.21"/><circle class="cls-8" cx="731.71" cy="608.3" r="8.21"/><path class="cls-8" d="M773.84,608.29a8.22,8.22,0,0,1-1.53,4.78c-3.76.6-7.7,1.16-11.79,1.65h0a8.21,8.21,0,1,1,13.33-6.43Z" transform="translate(0.02 0)"/><path class="cls-8" d="M806.16,603.41c-3.3,2.07-8.37,4-14.76,5.72a5.89,5.89,0,0,1,0-.84,8.2,8.2,0,0,1,14.8-4.88Z" transform="translate(0.02 0)"/></g></g><path id="HAND" class="cls-6" d="M292.64,471.17c9.72-2.09,43.91-1.91,61.41,2.84l-3.31,29s-16.46,8.06-27.33,3.59-19.07-13.27-26.81-10.86-17.26,8.51-21.91,7.4a49.23,49.23,0,0,1-15.62-6.47C260.92,493.27,280.66,474.88,292.64,471.17Z" transform="translate(0.02 0)"/><g id="HEAD"><path id="NECK" class="cls-6" d="M708.75,184.19c2.71,10.86,13.57,57.93,13.57,65.17s74.71-1.14,89.19-13.81c0,0-29.45-32.82-36.69-82.14Z" transform="translate(0.02 0)"/><path id="HEAD-2" class="cls-6" d="M765.65,158.46S742.86,206,695.51,202.21a9.6,9.6,0,0,1-7.65-4.92c-6.5-11.8-23.74-45-23.11-64.71.78-24.21,11.08-69.1,11.08-69.1S733.49,51.54,765.5,105C783.43,135,765.65,158.46,765.65,158.46Z" transform="translate(0.02 0)"/><g id="GLASSES"><path class="cls-9" d="M724,115.52" transform="translate(0.02 0)"/></g><g id="HAIR"><path class="cls-10" d="M874.93,204.49S808.48,223.7,719,229.55c0,0-31.15-32.26,4.74-72.07,20.52-22.76-4.63-51.61-4.63-51.61-28.75-9-62.91-10-62.91-10-11.41-16.77-11.72-40.58,20-64.09,32.86-24.32,97.25-48.61,135.25-10.1,21.77,22,7,66.1,34.86,79.48C934,143.17,874.93,204.49,874.93,204.49Z" transform="translate(0.02 0)"/><path class="cls-11" d="M686.11,31.74C719,7.42,783.36-16.87,821.36,21.64c21.77,22,9.18,73.76,37,87.14" transform="translate(0.02 0)"/><path class="cls-11" d="M648.55,95.83c-11.41-16.77-6.63-45.51,28.81-63" transform="translate(0.02 0)"/><path class="cls-11" d="M704,229.41s-26.78-34.24,11.66-71.6c22-21.36,3.15-56.18,3.15-56.18" transform="translate(0.02 0)"/></g></g></g><g id="CHAIR"><path class="cls-12" d="M991.13,443.14c-5.31,20-76.4,149-83.45,331.15a98,98,0,0,1-97.88,94.27H489.07c-10.91,0-18.33,4.38-23,11.49a3.38,3.38,0,0,1-6.16-1.91V861.55c0-22,17.89-43.88,39.93-43.82l97.92.08c43.84.13,69.79-30.54,71.45-74.35,6.12-161.8,58.16-264.21,81.74-297.37a45.27,45.27,0,0,1,36.9-19H983C991.24,427.1,993.25,435.15,991.13,443.14Z" transform="translate(0.02 0)"/><path class="cls-13" d="M988.39,441.94H797.61a43,43,0,0,0-35.05,18c-22.48,31.62-70.41,160.27-76.28,305.9a68.56,68.56,0,0,1-68.54,65.74H496.42A36.52,36.52,0,0,0,459.9,868.1h0" transform="translate(0.02 0)"/><rect class="cls-12" x="659.87" y="934.17" width="35" height="322.12"/><path class="cls-13" d="M602.43,1290.86c0-18.87,14.1-34.17,31.49-34.17h87c17.39,0,31.5,15.3,31.5,34.17" transform="translate(0.02 0)"/><circle class="cls-12" cx="750.45" cy="1306.36" r="24.54"/><circle class="cls-12" cx="605.45" cy="1306.36" r="24.54"/><path class="cls-12" d="M639,869.14h76.67v48.08a27.59,27.59,0,0,1-27.59,27.59H666.61A27.59,27.59,0,0,1,639,917.24v-48.1Z" transform="translate(0.02 0)"/><path class="cls-13" d="M535.36,1290.68a34,34,0,0,1,34-34h227a34,34,0,0,1,34,34h0" transform="translate(0.02 0)"/><circle class="cls-12" cx="528.43" cy="1306.36" r="24.54" transform="translate(-812.09 1740.86) rotate(-85.93)"/><circle class="cls-12" cx="834.45" cy="1306.36" r="24.54"/></g></g></g></g></svg>