<svg id="OBJECTS" xmlns="http://www.w3.org/2000/svg" xmlns:xlink="http://www.w3.org/1999/xlink" viewBox="0 0 589.51 414.7"><defs><style>.cls-1,.cls-11,.cls-12,.cls-16,.cls-9{fill:none;}.cls-2{fill:#3e3f3f;}.cls-11,.cls-14,.cls-3,.cls-7,.cls-9{stroke:#000;}.cls-11,.cls-12,.cls-14,.cls-16,.cls-3,.cls-7{stroke-linecap:round;}.cls-3,.cls-9{stroke-miterlimit:10;}.cls-3{stroke-width:1.55px;}.cls-10,.cls-4{opacity:0.77;}.cls-4{fill:url(#Nueva_muestra_de_motivo_1);}.cls-5{clip-path:url(#clip-path);}.cls-6{fill:#9a8cf3;}.cls-7{fill:#fff;}.cls-11,.cls-12,.cls-14,.cls-16,.cls-7{stroke-linejoin:round;}.cls-8{fill:url(#Nueva_muestra_de_motivo_2);}.cls-9{stroke-width:4.04px;}.cls-10{fill:url(#Nueva_muestra_de_motivo_1-3);}.cls-12{stroke:#9a8cf3;}.cls-13{fill:#7d4cdb;}.cls-15{clip-path:url(#clip-path-2);}.cls-16{stroke:#fff;}.cls-17{clip-path:url(#clip-path-3);}</style><pattern id="Nueva_muestra_de_motivo_1" data-name="Nueva muestra de motivo 1" width="16.13" height="14.36" patternTransform="translate(-54.09 -82.64) scale(0.65 0.65)" patternUnits="userSpaceOnUse" viewBox="0 0 16.14 14.36"><rect class="cls-1" width="16.13" height="14.36"/><path class="cls-2" d="M16.48,1.61a.75.75,0,0,0-.79.88c.24,1.21,1.9.83,1.45-.23C17.1,2.15,16.89,1.66,16.48,1.61Z"/><path class="cls-2" d="M3.6,5.28a.76.76,0,0,0-.79.88c.24,1.21,1.9.83,1.46-.23C4.22,5.82,4,5.33,3.6,5.28Z"/><path class="cls-2" d="M.34,1.61a.75.75,0,0,0-.78.88c.23,1.21,1.9.83,1.45-.23C1,2.15.75,1.66.34,1.61Z"/><path class="cls-2" d="M16.76,11.15a.76.76,0,0,0-1.1.42c-.35,1.18,1.29,1.62,1.39.47A1,1,0,0,0,16.76,11.15Z"/><path class="cls-2" d="M13.19,11.6a.75.75,0,0,0-1.1.42c-.35,1.18,1.29,1.61,1.39.46A1,1,0,0,0,13.19,11.6Z"/><path class="cls-2" d="M16.32,6.53a.75.75,0,0,0-1.1.41c-.35,1.18,1.3,1.62,1.4.47A1,1,0,0,0,16.32,6.53Z"/><path class="cls-2" d="M12.5,7.33A.75.75,0,0,0,11.37,7c-1,.73.07,2.07.84,1.21A1,1,0,0,0,12.5,7.33Z"/><path class="cls-2" d="M10.4,14a.75.75,0,0,0-1.13-.33c-1,.73.06,2.07.83,1.21C10.18,14.81,10.53,14.41,10.4,14Z"/><path class="cls-2" d="M4.45,13.26a.76.76,0,0,0-1.1.42c-.35,1.18,1.3,1.62,1.39.47A1,1,0,0,0,4.45,13.26Z"/><path class="cls-2" d="M8.23,4.51a.76.76,0,0,0-.48,1.08c.6,1.08,2.06.21,1.31-.67C9,4.84,8.63,4.44,8.23,4.51Z"/><path class="cls-2" d="M13.43,2.39a.77.77,0,0,0-1.18-.05c-.79,1,.56,2,1.1,1A1.06,1.06,0,0,0,13.43,2.39Z"/><path class="cls-2" d="M6,1.75a.76.76,0,0,0-1.11.42c-.35,1.18,1.3,1.61,1.4.46A1,1,0,0,0,6,1.75Z"/><path class="cls-2" d="M4.87,8.92a.75.75,0,0,0-.87.8c.11,1.22,1.8,1,1.46-.09C5.43,9.52,5.27,9,4.87,8.92Z"/><path class="cls-2" d="M8.94,10.23a.77.77,0,0,0-.87.8c.11,1.23,1.8,1,1.47-.08C9.5,10.83,9.34,10.33,8.94,10.23Z"/><path class="cls-2" d="M.62,11.15a.76.76,0,0,0-1.1.42C-.83,12.75.82,13.19.92,12A1,1,0,0,0,.62,11.15Z"/><path class="cls-2" d="M.19,6.53a.75.75,0,0,0-1.1.41C-1.26,8.12.38,8.56.48,7.41.49,7.29.53,6.76.19,6.53Z"/><path class="cls-2" d="M10.4-.35A.76.76,0,0,0,9.27-.68c-1,.73.06,2.07.83,1.21A1,1,0,0,0,10.4-.35Z"/><path class="cls-2" d="M4.45-1.1a.75.75,0,0,0-1.1.41C3,.49,4.65.93,4.74-.22A1,1,0,0,0,4.45-1.1Z"/></pattern><clipPath id="clip-path" transform="translate(-51.81 -66.24)"><rect class="cls-1" x="144.32" y="363.58" width="95.31" height="95.31"/></clipPath><pattern id="Nueva_muestra_de_motivo_2" data-name="Nueva muestra de motivo 2" width="100" height="180" patternTransform="translate(-165.98 11.2) scale(0.8)" patternUnits="userSpaceOnUse" viewBox="0 0 100 180"><rect class="cls-1" width="100" height="180"/><path class="cls-3" d="M90.77,183.94a3.95,3.95,0,1,1-4-3.94A3.94,3.94,0,0,1,90.77,183.94Z"/><path class="cls-3" d="M82.88,143.83a3.94,3.94,0,1,1-3.94-3.94A3.94,3.94,0,0,1,82.88,143.83Z"/><path class="cls-3" d="M51.84,173.09a3.94,3.94,0,1,1-3.94-3.94A3.93,3.93,0,0,1,51.84,173.09Z"/><path class="cls-3" d="M14.88,161.27a3.94,3.94,0,1,1-3.94-3.94A3.94,3.94,0,0,1,14.88,161.27Z"/><path class="cls-3" d="M101.84,83.09a3.94,3.94,0,1,1-3.94-3.94A3.93,3.93,0,0,1,101.84,83.09Z"/><path class="cls-3" d="M40.77,93.94a3.95,3.95,0,1,1-4-3.94A3.94,3.94,0,0,1,40.77,93.94Z"/><path class="cls-3" d="M44.71,135a3.95,3.95,0,1,1-3.94-3.94A3.94,3.94,0,0,1,44.71,135Z"/><path class="cls-3" d="M64.88,71.27a3.94,3.94,0,1,1-3.94-3.94A3.94,3.94,0,0,1,64.88,71.27Z"/><circle class="cls-3" cx="68.82" cy="107.49" r="3.94"/><path class="cls-3" d="M32.88,53.83a3.94,3.94,0,1,1-3.94-3.94A3.94,3.94,0,0,1,32.88,53.83Z"/><path class="cls-3" d="M16.41,120.88a3.94,3.94,0,1,1-3.94-3.94A3.93,3.93,0,0,1,16.41,120.88Z"/><path class="cls-3" d="M1.84,83.09A3.93,3.93,0,0,1-2.1,87,3.93,3.93,0,0,1-6,83.09,3.93,3.93,0,0,1-2.1,79.15,3.93,3.93,0,0,1,1.84,83.09Z"/><path class="cls-3" d="M90.77,3.94a3.95,3.95,0,1,1-4-3.94A3.94,3.94,0,0,1,90.77,3.94Z"/><path class="cls-3" d="M94.71,45a3.95,3.95,0,1,1-3.94-3.94A3.94,3.94,0,0,1,94.71,45Z"/><path class="cls-3" d="M66.41,30.88a3.94,3.94,0,1,1-3.94-3.94A3.93,3.93,0,0,1,66.41,30.88Z"/><circle class="cls-3" cx="18.82" cy="17.49" r="3.94"/></pattern><pattern id="Nueva_muestra_de_motivo_1-3" data-name="Nueva muestra de motivo 1" width="16.13" height="14.36" patternTransform="translate(-6.04 -13.21) scale(0.65 0.65)" patternUnits="userSpaceOnUse" viewBox="0 0 16.14 14.36"><rect class="cls-1" width="16.13" height="14.36"/><path class="cls-2" d="M16.48,1.61a.75.75,0,0,0-.79.88c.24,1.21,1.9.83,1.45-.23C17.1,2.15,16.89,1.66,16.48,1.61Z"/><path class="cls-2" d="M3.6,5.28a.76.76,0,0,0-.79.88c.24,1.21,1.9.83,1.46-.23C4.22,5.82,4,5.33,3.6,5.28Z"/><path class="cls-2" d="M.34,1.61a.75.75,0,0,0-.78.88c.23,1.21,1.9.83,1.45-.23C1,2.15.75,1.66.34,1.61Z"/><path class="cls-2" d="M16.76,11.15a.76.76,0,0,0-1.1.42c-.35,1.18,1.29,1.62,1.39.47A1,1,0,0,0,16.76,11.15Z"/><path class="cls-2" d="M13.19,11.6a.75.75,0,0,0-1.1.42c-.35,1.18,1.29,1.61,1.39.46A1,1,0,0,0,13.19,11.6Z"/><path class="cls-2" d="M16.32,6.53a.75.75,0,0,0-1.1.41c-.35,1.18,1.3,1.62,1.4.47A1,1,0,0,0,16.32,6.53Z"/><path class="cls-2" d="M12.5,7.33A.75.75,0,0,0,11.37,7c-1,.73.07,2.07.84,1.21A1,1,0,0,0,12.5,7.33Z"/><path class="cls-2" d="M10.4,14a.75.75,0,0,0-1.13-.33c-1,.73.06,2.07.83,1.21C10.18,14.81,10.53,14.41,10.4,14Z"/><path class="cls-2" d="M4.45,13.26a.76.76,0,0,0-1.1.42c-.35,1.18,1.3,1.62,1.39.47A1,1,0,0,0,4.45,13.26Z"/><path class="cls-2" d="M8.23,4.51a.76.76,0,0,0-.48,1.08c.6,1.08,2.06.21,1.31-.67C9,4.84,8.63,4.44,8.23,4.51Z"/><path class="cls-2" d="M13.43,2.39a.77.77,0,0,0-1.18-.05c-.79,1,.56,2,1.1,1A1.06,1.06,0,0,0,13.43,2.39Z"/><path class="cls-2" d="M6,1.75a.76.76,0,0,0-1.11.42c-.35,1.18,1.3,1.61,1.4.46A1,1,0,0,0,6,1.75Z"/><path class="cls-2" d="M4.87,8.92a.75.75,0,0,0-.87.8c.11,1.22,1.8,1,1.46-.09C5.43,9.52,5.27,9,4.87,8.92Z"/><path class="cls-2" d="M8.94,10.23a.77.77,0,0,0-.87.8c.11,1.23,1.8,1,1.47-.08C9.5,10.83,9.34,10.33,8.94,10.23Z"/><path class="cls-2" d="M.62,11.15a.76.76,0,0,0-1.1.42C-.83,12.75.82,13.19.92,12A1,1,0,0,0,.62,11.15Z"/><path class="cls-2" d="M.19,6.53a.75.75,0,0,0-1.1.41C-1.26,8.12.38,8.56.48,7.41.49,7.29.53,6.76.19,6.53Z"/><path class="cls-2" d="M10.4-.35A.76.76,0,0,0,9.27-.68c-1,.73.06,2.07.83,1.21A1,1,0,0,0,10.4-.35Z"/><path class="cls-2" d="M4.45-1.1a.75.75,0,0,0-1.1.41C3,.49,4.65.93,4.74-.22A1,1,0,0,0,4.45-1.1Z"/></pattern><clipPath id="clip-path-2" transform="translate(-51.81 -66.24)"><path class="cls-1" d="M329.94,157.67l22.57-8.06s27.07,44.92,28,74.79c0,0-31.88-.59-59.33-.89Z"/></clipPath><clipPath id="clip-path-3" transform="translate(-51.81 -66.24)"><path class="cls-1" d="M303,208.33l25.06,17.72s40-50.36,21.51-62.53C332.17,152.05,303,208.33,303,208.33Z"/></clipPath></defs><rect class="cls-4" x="518.35" y="317.43" width="58.26" height="74.88"/><g class="cls-5"><path class="cls-6" d="M261.68,412.68l-1.87,1.86h0l-4.59,4.6h0l-4.6,4.59h0l-4.59,4.6h0l-4.59,4.59h0l-4.6,4.59-4.59,4.6h0l-4.6,4.59h0l-4.59,4.6h0l-9,9-.22.23h0l-4.6,4.59h0l-4.59,4.59h0l-4.6,4.6h0l-4.59,4.59h0l-2.08,2.08.87,0,2.3-2.3h0l4.6-4.6h0l4.59-4.59h0l4.6-4.6h0l4.59-4.59h0l4.6-4.6h0l4.59-4.6h0l4.6-4.59h0l4.59-4.6h0l4.59-4.59h0l4.59-4.6h0l4.59-4.59h0l4.6-4.59h0l4.59-4.6h0l4.6-4.59h0l.75-.75C261.67,413.26,261.68,413,261.68,412.68Z" transform="translate(-51.81 -66.24)"/><path class="cls-6" d="M261.41,417.54l-1.6,1.6h0l-4.59,4.59h0l-4.59,4.6h0L246,432.92h0l-9,9-.22.22h0l-4.59,4.59h0l-4.6,4.6h0l-4.59,4.59h0l-4.6,4.6h0l-4.59,4.59h0l-4.6,4.59h0l-4.59,4.6h0l-4.6,4.59h0l-1.81,1.81.94-.08,6.34-6.35.22-.22h0l4.6-4.59h0l4.59-4.6h0l4.6-4.59h0l4.59-4.6h0l4.6-4.6h0l4.59-4.59h0l4.6-4.6h0l4.59-4.59h0l4.59-4.6h0l4.6-4.59h0l4.59-4.59h0l4.6-4.6h0l.42-.42C261.36,418.16,261.39,417.85,261.41,417.54Z" transform="translate(-51.81 -66.24)"/><path class="cls-6" d="M224.29,473c.63-.33,1.25-.66,1.86-1l2.6-2.59h0l4.59-4.6h0l4.6-4.59h0l4.59-4.6h0l4.59-4.6h0l4.6-4.59h0l1-1c.34-.62.68-1.24,1-1.86l-3.15,3.14h0L246,451.3h0l-9,9-.22.23h0l-4.59,4.59h0l-4.6,4.59h0Z" transform="translate(-51.81 -66.24)"/><path class="cls-6" d="M216,476.7l1.37-.52,2.16-2.16h0l4.59-4.59h0l4.6-4.6h0l4.59-4.59h0l4.59-4.6h0l4.59-4.6h0l4.59-4.59h0l4.6-4.6h0l4.59-4.59h0l.61-.61c.18-.45.35-.91.52-1.37l-2.22,2.22-4.6,4.6h0L246,446.7h0l-4.59,4.6h0l-4.6,4.59-4.59,4.6h0l-4.6,4.59h0l-4.59,4.59h0Z" transform="translate(-51.81 -66.24)"/><path class="cls-6" d="M215,474h0l4.6-4.59h0l4.59-4.6h0l4.6-4.59,4.59-4.6h0l4.59-4.6h0l4.59-4.59h0l4.59-4.6,4.6-4.59h0l4.59-4.6h0l2.89-2.88c.11-.39.22-.78.32-1.17l-4.3,4.3h0l-4.6,4.59h0l-4.59,4.6h0l-4.59,4.59h0l-4.6,4.6h0l-4.59,4.59h0l-4.6,4.6h0l-4.59,4.59h0l-4.6,4.59h0l-4.59,4.6-4.51,4.51,1.16-.32Z" transform="translate(-51.81 -66.24)"/><path class="cls-6" d="M210.37,474h0l4.59-4.59h0l4.6-4.6h0l9-9,.23-.23h0l4.59-4.6h0l4.59-4.59h0l9.18-9.19h0l4.6-4.6h0l4.59-4.59h0l4.25-4.25c.07-.34.12-.68.18-1L257.52,426l-2.3,2.3h0l-4.59,4.59h0L246,437.51h0l-4.59,4.6h0l-4.6,4.59h0l-4.59,4.6h0l-4.6,4.59h0l-4.59,4.6h0l-4.6,4.59h0l-4.59,4.59h0l-4.6,4.6h0l-4.59,4.59h0L203.54,480l1-.18,1.21-1.2Z" transform="translate(-51.81 -66.24)"/><path class="cls-6" d="M148.27,356.94a70.22,70.22,0,0,0-10.59,10.59l3.77-3.77h0l4.59-4.59h0Z" transform="translate(-51.81 -66.24)"/><path class="cls-6" d="M260.76,399.81l-.95.95h0l-4.59,4.6h0l-4.6,4.59h0L246,414.54h0l-4.59,4.6h0l-4.6,4.59h0l-4.59,4.6h0l-4.6,4.59h0l-4.59,4.59h0l-4.6,4.6h0l-4.59,4.59h0l-4.6,4.6h0l-4.59,4.59h0l-4.6,4.6h0l-4.59,4.59h0l-4.59,4.59h0l-4.59,4.6h0l-4.59,4.59h0L180.55,480l.73.12,6.11-6.12h0l4.6-4.59h0l4.59-4.6h0l9-9,.22-.23h0l4.6-4.6h0l4.59-4.59h0l4.6-4.6h0l4.59-4.59h0l4.6-4.6h0l4.59-4.59h0l4.6-4.59h0l4.59-4.6h0l4.59-4.59h0l4.6-4.6h0l4.59-4.59h0l4.57-4.57C260.85,400.3,260.8,400.06,260.76,399.81Z" transform="translate(-51.81 -66.24)"/><path class="cls-6" d="M261.31,403.86l-1.5,1.5h0L255.22,410h0l-4.6,4.59h0l-4.59,4.6h0L239.14,426l-2.3,2.3h0l-4.59,4.59h0l-4.6,4.59h0l-4.59,4.6h0l-4.6,4.59h0l-4.59,4.6h0l-4.6,4.59h0l-4.59,4.6h0l-4.6,4.59h0l-4.59,4.59h0l-4.6,4.6h0l-4.59,4.59h0l-1.71,1.71.78.07,2-2h0L192,474h0l4.59-4.59h0l4.6-4.6h0l4.59-4.59,4.6-4.6h0l4.59-4.6h0l4.6-4.59h0l9.19-9.19h0l4.59-4.6h0l4.59-4.59h0l7.43-7.43,1.75-1.76h0l4.6-4.59h0l4.59-4.6h0l4.6-4.59h0l.48-.48C261.36,404.37,261.34,404.12,261.31,403.86Z" transform="translate(-51.81 -66.24)"/><path class="cls-6" d="M261.63,408.14,259.81,410h0l-4.59,4.59h0l-4.6,4.6h0L246,423.73h0l-4.59,4.6h0l-4.6,4.59h0l-4.59,4.59h0l-4.6,4.6h0l-4.59,4.59h0l-4.6,4.6h0l-4.59,4.59-4.6,4.6h0l-4.59,4.59h0l-4.6,4.59h0l-9.19,9.19h0l-2,2,.82,0,2.3-2.3h0l4.59-4.6h0l4.6-4.59h0l4.59-4.6h0l4.6-4.59h0l4.59-4.6h0l4.6-4.6h0l4.59-4.59h0l4.6-4.6,4.59-4.59h0l4.59-4.6h0l4.59-4.59h0l4.59-4.59h0l4.6-4.6h0l4.59-4.59h0l4.6-4.6h0l.75-.75Z" transform="translate(-51.81 -66.24)"/><path class="cls-6" d="M255.39,382.22l-.17.17h0l-4.6,4.59h0L246,391.57h0l-4.59,4.6h0l-4.6,4.59h0l-4.59,4.6h0l-4.6,4.59h0l-4.59,4.59h0l-4.6,4.6h0l-4.59,4.59h0l-4.6,4.6h0l-4.59,4.59h0l-4.6,4.59h0l-4.59,4.6h0l-4.6,4.59h0l-4.59,4.6h0l-4.59,4.59h0l-4.6,4.6h0l-4.59,4.59h0l-4.6,4.59h0l-4.59,4.6h0l-.38.37.59.27.66-.67.22-.22h0l4.6-4.59h0l4.59-4.6h0l4.6-4.59h0l4.59-4.6h0l4.59-4.6h0l4.6-4.59h0l4.59-4.6h0l4.6-4.59h0l4.59-4.6h0l4.6-4.59h0l4.59-4.59h0l4.6-4.6h0l4.59-4.59h0l4.6-4.6h0l4.59-4.59h0l4.59-4.59h0l4.59-4.6h0l4.59-4.59h0l4.6-4.6h0l3.93-3.93C255.56,382.61,255.48,382.41,255.39,382.22Z" transform="translate(-51.81 -66.24)"/><path class="cls-6" d="M257,386c-.08-.2-.15-.4-.24-.61L255.22,387h0l-4.6,4.59h0l-4.59,4.6h0l-4.59,4.59h0l-4.6,4.6h0L232.25,410h0l-4.6,4.59h0l-4.59,4.6h0L216.17,426l-2.3,2.3h0l-4.6,4.59h0l-4.59,4.59h0l-4.6,4.6h0l-4.59,4.59h0l-4.59,4.6h0l-4.59,4.59h0l-4.59,4.6h0l-4.6,4.59h0l-4.59,4.59h0l-4.6,4.6h0L166.17,476l.61.24L169,474h0l4.59-4.59h0l4.59-4.6h0l9.18-9.19h0l4.6-4.6h0l4.59-4.59h0l9.19-9.19h0l4.6-4.6h0l4.59-4.59h0l4.6-4.59h0l4.59-4.6h0l4.6-4.59h0l4.59-4.6h0l4.6-4.59h0l4.59-4.59h0l4.59-4.6h0l4.6-4.59h0l4.59-4.6h0Z" transform="translate(-51.81 -66.24)"/><path class="cls-6" d="M250.49,373.33,246,377.79h0l-4.59,4.6h0l-4.6,4.59h0l-4.59,4.59h0l-4.6,4.6h0l-4.59,4.59h0l-4.6,4.6h0L213.87,410h0l-4.6,4.59h0l-4.59,4.6h0l-4.6,4.59h0l-4.59,4.6h0l-4.59,4.59h0l-4.59,4.59h0l-4.59,4.6h0l-4.6,4.59h0l-4.59,4.6h0l-4.6,4.59h0l-4.59,4.6h0l-4.6,4.59h0l-4.59,4.59h0l-.08.08.52.33.65-.65h0l4.6-4.6h0l4.59-4.59,4.6-4.6h0l4.59-4.6h0l4.59-4.59h0l9.18-9.19h0l4.6-4.6h0l4.59-4.59h0l7.44-7.43,1.75-1.76h0l4.6-4.59h0l4.59-4.6h0l4.6-4.59h0l4.59-4.59h0l4.6-4.6h0l4.59-4.59h0l4.6-4.6h0l4.59-4.59h0l4.59-4.6h0l3.71-3.7Z" transform="translate(-51.81 -66.24)"/><path class="cls-6" d="M252.56,376.71c-.11-.18-.21-.36-.31-.54l-1.63,1.62h0l-4.59,4.6h0L241.44,387h0l-4.6,4.59h0l-4.59,4.6h0l-4.6,4.59h0l-4.59,4.6h0l-4.6,4.59h0l-4.59,4.59h0l-4.6,4.6h0l-4.59,4.59h0l-4.6,4.6h0l-4.59,4.59h0l-4.6,4.59h0l-4.59,4.6h0l-4.59,4.59h0l-4.6,4.6h0l-4.59,4.59-4.6,4.6h0l-4.59,4.59h0l-4.6,4.59h0l-1.82,1.83.53.31,2.39-2.38h0l4.59-4.6h0l4.6-4.59h0l4.59-4.6h0l4.59-4.6h0l4.59-4.59h0l4.59-4.6h0l4.6-4.59h0l4.59-4.6h0l4.6-4.59h0l4.59-4.59h0l4.6-4.6h0L215,414.3h0l4.6-4.6h0l4.59-4.59h0l4.6-4.59h0l4.59-4.6h0l4.59-4.59h0l4.59-4.6,4.59-4.59h0l4.6-4.6h0Z" transform="translate(-51.81 -66.24)"/><path class="cls-6" d="M245,365.93l-.39-.46-3.13,3.13h0l-4.6,4.6h0l-4.59,4.59h0l-4.6,4.6h0L223.06,387h0l-4.6,4.59h0l-4.59,4.6h0l-4.6,4.59h0l-4.59,4.6h0l-4.6,4.59h0l-4.59,4.59h0l-4.6,4.6h0l-4.59,4.59h0l-4.59,4.6h0l-4.6,4.59h0l-4.59,4.59-4.6,4.6h0l-4.59,4.59h0l-4.6,4.6h0l-9.19,9.19h0l-3.33,3.33.45.39,4-4h0l4.59-4.6h0l4.6-4.6h0l4.59-4.59h0l4.6-4.6h0l4.59-4.59h0l4.59-4.6h0l4.59-4.59h0l4.59-4.59h0l4.6-4.6h0l4.59-4.59h0l4.6-4.6h0l4.59-4.59h0l4.6-4.59h0l4.59-4.6h0l4.6-4.59h0l4.59-4.6,4.6-4.59h0l4.59-4.6h0l4.59-4.59h0l4.59-4.59Z" transform="translate(-51.81 -66.24)"/><path class="cls-6" d="M242.79,363.51l-.41-.44-.94.94-4.6,4.59h0l-4.59,4.6h0l-4.6,4.59h0l-4.59,4.6h0l-4.6,4.59h0l-4.59,4.59h0l-4.6,4.6h0l-4.59,4.59h0l-4.6,4.6h0L195.49,410h0l-4.6,4.59h0l-4.59,4.6h0l-4.59,4.59h0l-4.6,4.6h0l-4.59,4.59h0l-4.6,4.59h0l-4.59,4.6h0l-4.6,4.59h0l-4.59,4.6h0l-4.6,4.59h0l-4.59,4.6h0l-1.15,1.14.44.41,1.8-1.8h0l4.6-4.6h0l4.59-4.6h0l4.6-4.59h0l4.59-4.6,4.6-4.59h0l4.59-4.6h0l4.59-4.59h0l8.85-8.85.33-.34h0l4.6-4.59h0l4.59-4.6h0l4.6-4.59h0l4.59-4.59h0l4.6-4.6h0l4.59-4.59h0l4.6-4.6h0l4.59-4.59h0l4.6-4.6h0l4.59-4.59h0l4.6-4.59h0l4.59-4.6h0Z" transform="translate(-51.81 -66.24)"/><path class="cls-6" d="M247,368.45c-.13-.15-.25-.31-.38-.47l-.62.62h0l-4.59,4.6-4.6,4.59h0l-4.59,4.6h0l-4.6,4.59h0l-4.59,4.59h0l-4.6,4.6h0l-4.59,4.59h0l-4.6,4.6h0L204.68,410h0l-4.6,4.59h0l-4.59,4.6h0l-4.6,4.59h0l-4.59,4.6h0l-4.59,4.59h0l-9,9-.22.22h0l-4.6,4.59h0l-4.59,4.6h0l-4.6,4.59h0l-4.59,4.6h0l-4.6,4.59h0l-.82.83.47.37,1.45-1.45h0l4.59-4.59h0l4.6-4.6h0l4.59-4.6h0l4.6-4.59h0l4.59-4.6h0l4.59-4.59h0l4.59-4.6h0l4.59-4.59h0l4.6-4.59h0l4.59-4.6h0l4.6-4.59h0l4.59-4.6h0l4.6-4.59h0l4.59-4.59h0l4.6-4.6h0l4.59-4.59h0l4.6-4.6h0l4.59-4.59h0l4.6-4.6h0l4.59-4.59h0Z" transform="translate(-51.81 -66.24)"/><path class="cls-6" d="M240.51,361.19l-.43-.42L236.84,364h0l-4.59,4.59h0l-4.6,4.6h0l-4.59,4.59h0l-4.6,4.6h0L213.87,387h0l-4.6,4.59h0l-4.59,4.6h0l-4.6,4.59h0l-4.59,4.6h0L190.9,410h0l-4.59,4.59h0l-4.59,4.6h0l-6.9,6.89-2.29,2.3h0l-4.6,4.59h0l-4.59,4.59h0l-4.6,4.6h0l-4.59,4.59h0l-4.6,4.6h0L145,455.89h0l-3.44,3.44.42.43,4.11-4.12h0l4.6-4.6h0l4.59-4.59h0l9.19-9.19h0l4.6-4.6h0l4.59-4.59h0l4.6-4.59h0l4.59-4.6h0l4.59-4.59h0l4.6-4.6h0l4.59-4.59h0l4.6-4.59h0l4.59-4.6h0l4.6-4.59h0l4.59-4.6h0l4.6-4.59h0l4.59-4.6,4.6-4.59h0l4.59-4.59h0l4.59-4.6h0Z" transform="translate(-51.81 -66.24)"/><path class="cls-6" d="M200.08,345.63h0l-4.59,4.6h0l-4.6,4.59h0l-4.59,4.6h0l-4.59,4.6h0l-4.6,4.59h0l-4.59,4.6h0l-4.6,4.59h0l-4.59,4.6h0l-4.6,4.59h0l-4.59,4.59h0l-4.6,4.6h0L145,400.76h0l-4.6,4.6h0L135.76,410h0l-4.6,4.59h0l-4.59,4.6h0l-3.39,3.38.12.73,4.36-4.36h0l4.6-4.59h0l4.59-4.6h0l4.6-4.59h0l4.59-4.59h0l4.6-4.6h0l4.59-4.59h0l4.6-4.6,4.59-4.59h0l4.6-4.6h0l4.59-4.59h0l4.6-4.59h0l4.59-4.6h0l4.59-4.59h0l4.6-4.6h0l4.59-4.59h0l4.6-4.59h0l2.82-2.83-.73-.12Z" transform="translate(-51.81 -66.24)"/><path class="cls-6" d="M195.49,345.63l-4.59,4.6h0l-4.59,4.59h0l-4.59,4.6h0l-4.6,4.6-4.59,4.59h0l-4.6,4.6h0l-4.59,4.59h0l-4.6,4.6h0L154.14,387h0l-4.6,4.59h0l-4.59,4.6h0l-4.6,4.59h0l-4.59,4.6h0l-4.6,4.59h0l-4.59,4.59h0l-3.93,3.93.09.76.34-.34h0l4.59-4.59h0l4.6-4.6h0l4.59-4.59h0l4.6-4.59h0l4.59-4.6h0l4.6-4.59h0l4.59-4.6h0l4.6-4.59h0l4.59-4.6h0L169,373h0l4.59-4.59h0l4.59-4.6h0l4.59-4.59,4.59-4.6h0L192,350h0l4.59-4.59h0L200,342l-.76-.09Z" transform="translate(-51.81 -66.24)"/><path class="cls-6" d="M190.89,345.63h0l-4.59,4.6h0l-4.59,4.59h0l-4.6,4.59h0l-4.59,4.6h0l-4.6,4.59h0l-4.59,4.6h0l-4.6,4.59h0l-4.59,4.6h0l-4.6,4.59h0L145,391.57h0l-4.6,4.6h0l-4.59,4.59h0l-4.6,4.6h0L126.57,410h0l-4.23,4.23,0,.82.7-.7h0l4.59-4.6h0l4.6-4.59h0l4.59-4.59h0l4.6-4.6h0l4.59-4.59h0l4.6-4.6h0l4.59-4.59h0l4.6-4.6,4.59-4.59h0l4.6-4.59h0l4.59-4.6h0l4.6-4.59h0l4.59-4.6h0l4.59-4.59h0l4.6-4.59h0l3.76-3.76-.82,0Z" transform="translate(-51.81 -66.24)"/><path class="cls-6" d="M186.3,345.63h0l-4.59,4.6h0l-4.6,4.59-4.59,4.6h0l-4.6,4.6h0l-4.59,4.59h0l-4.6,4.6h0l-4.59,4.59h0l-4.6,4.6h0L145,387h0l-4.6,4.59h0l-4.59,4.6h0l-4.6,4.59h0l-4.59,4.6h0l-4.28,4.28c0,.28,0,.57,0,.85l.79-.79h0l4.59-4.59h0l4.6-4.59h0l4.59-4.6h0l4.6-4.59h0l4.59-4.6h0l4.6-4.59h0l4.59-4.6h0l4.6-4.59h0l4.59-4.59h0l4.6-4.6h0l4.59-4.59h0l4.59-4.6h0L182.8,350l4.59-4.59h0l3.85-3.85h-.86Z" transform="translate(-51.81 -66.24)"/><path class="cls-6" d="M177.11,345.63l-4.59,4.6h0l-4.6,4.59h0l-4.59,4.6h0l-4.6,4.6h0l-4.59,4.59h0l-4.6,4.6h0L145,377.79h0l-4.6,4.6h0L135.76,387h0l-4.6,4.59h0l-4.59,4.6h0l-3.31,3.3c-.05.34-.11.68-.16,1l4.56-4.57h0l4.6-4.59h0l4.59-4.6h0l4.6-4.59h0l4.59-4.6h0l4.6-4.59h0l4.59-4.59h0l4.6-4.6h0l4.59-4.59h0l4.6-4.6h0l4.59-4.59h0l4.59-4.59h0l3-3-1,.17Z" transform="translate(-51.81 -66.24)"/><path class="cls-6" d="M178.21,478.62l4.59-4.6h0l4.59-4.59h0l4.6-4.6h0l4.59-4.59h0l4.6-4.6h0l4.59-4.6h0l4.6-4.59h0l4.59-4.6h0l4.6-4.59h0l4.59-4.6h0l4.6-4.59h0l4.59-4.59h0l4.59-4.6h0l4.59-4.59h0l4.59-4.6h0l4.6-4.59h0l4.59-4.59h0l3.86-3.86L260,396l-.21.2h0l-4.59,4.59h0l-4.6,4.6h0L246,410h0l-4.59,4.59h0l-4.6,4.6h0l-4.59,4.59h0l-4.6,4.6h0l-4.59,4.59h0l-9,9-.22.22h0l-4.6,4.59h0l-4.59,4.6h0l-4.6,4.59h0l-4.59,4.6h0l-4.6,4.59h0l-4.59,4.59h0l-4.59,4.6h0l-4.6,4.59h0l-.41.41.7.15.81-.8Z" transform="translate(-51.81 -66.24)"/><path class="cls-6" d="M178.2,474h0l4.59-4.59h0l4.59-4.6h0l4.6-4.59h0l4.59-4.6h0l4.6-4.6h0l4.59-4.59h0l4.6-4.6h0l4.59-4.59h0l4.6-4.6h0l4.59-4.59h0l4.6-4.59h0l4.59-4.6h0l4.6-4.59h0l4.59-4.6h0l4.59-4.59h0l4.6-4.59h0l4.59-4.6h0l3-3c-.06-.22-.11-.44-.18-.67l-3.87,3.88h0l-4.6,4.59h0l-4.59,4.6h0L241.44,410h0l-4.6,4.59h0l-4.59,4.6h0l-4.6,4.59h0l-4.59,4.6h0l-4.6,4.59h0l-4.59,4.59-4.6,4.6h0l-4.59,4.59h0l-4.6,4.6h0l-9.19,9.19h0l-4.59,4.59h0l-4.59,4.59h0L173,478.35l.67.18Z" transform="translate(-51.81 -66.24)"/><path class="cls-6" d="M173.61,474h0l4.59-4.59h0l4.59-4.6h0l4.59-4.59h0l4.6-4.6h0l4.59-4.6h0l4.6-4.59h0l4.59-4.6,4.6-4.59h0l4.59-4.6h0l4.6-4.59h0l7.43-7.43,1.76-1.76h0l4.59-4.59h0l4.59-4.6h0l4.59-4.59h0l4.59-4.59h0l4.6-4.6h0l4.59-4.59h0l1.9-1.9c-.07-.22-.13-.43-.21-.64l-2.78,2.78h0l-4.6,4.6h0L246,400.76h0l-4.59,4.6h0l-4.6,4.59h0l-4.59,4.59h0l-4.6,4.6h0l-4.59,4.59h0l-4.6,4.6h0l-4.59,4.59h0l-4.6,4.59h0l-4.59,4.6h0l-4.6,4.59h0l-4.59,4.6h0l-4.6,4.59h0l-4.59,4.6h0l-4.59,4.59h0l-4.6,4.59h0l-4.59,4.6-3,3,.64.21Z" transform="translate(-51.81 -66.24)"/><path class="cls-6" d="M169,345.42l-1.32.47-4.33,4.34h0l-4.6,4.59h0l-4.59,4.59h0l-4.6,4.6h0L145,368.6h0l-4.6,4.6h0l-4.59,4.59h0l-4.6,4.6h0l-4.52,4.52c-.17.44-.32.88-.48,1.33l1.5-1.51h0l4.6-4.59h0l4.59-4.6h0l4.6-4.59h0l4.59-4.59h0l4.6-4.6h0l4.59-4.59h0l4.6-4.6h0l4.59-4.59h0Z" transform="translate(-51.81 -66.24)"/><path class="cls-6" d="M164.42,469.43h0l4.6-4.6h0l4.59-4.59h0l4.59-4.6h0l4.59-4.6h0l4.59-4.59h0l4.6-4.6h0l4.59-4.59h0l4.6-4.6h0l4.59-4.59h0l4.6-4.59h0l4.59-4.6h0l4.6-4.59h0l4.59-4.6h0l4.6-4.59h0l4.59-4.59h0l4.6-4.6h0l4.59-4.59h0l4.59-4.6h0l4.6-4.59h0l2.45-2.45c-.1-.19-.2-.37-.29-.56l-3.26,3.26h0L246,387h0l-4.59,4.59h0l-4.6,4.6h0l-4.59,4.59h0l-4.6,4.6h0L223.06,410h0l-4.6,4.59h0l-4.59,4.6h0l-4.6,4.59h0l-4.59,4.6h0l-4.6,4.59h0l-9.19,9.19h0l-4.59,4.59h0l-4.59,4.6h0l-9,9-.22.23h0l-4.6,4.59h0l-4.59,4.59h0l-3.46,3.46.56.29Z" transform="translate(-51.81 -66.24)"/><path class="cls-6" d="M159.31,349.65l-.58.58h0l-4.59,4.59-4.6,4.6h0L145,364h0l-4.6,4.59h0l-4.59,4.6-4.6,4.59h0l-.76.77q-.47.87-.9,1.74l2.76-2.76h0l4.59-4.59h0l4.6-4.59,4.59-4.6h0l4.6-4.59h0l4.59-4.6h0l4.6-4.59,1.22-1.22C160.47,349.05,159.89,349.34,159.31,349.65Z" transform="translate(-51.81 -66.24)"/><path class="cls-6" d="M155.23,464.83h0l9-9,.22-.23h0l4.6-4.6h0l4.59-4.59h0l4.6-4.6h0l4.59-4.59h0l4.59-4.6h0l4.6-4.59h0l4.59-4.59h0l4.6-4.6h0l4.59-4.59h0l4.6-4.6h0l4.59-4.59h0l4.6-4.59h0l4.59-4.6h0l4.6-4.59h0l4.59-4.6h0l4.59-4.59h0l4.59-4.6,4.59-4.59h0l1.86-1.86-.35-.49-2.6,2.6h0l-4.59,4.59h0l-4.6,4.6h0L232.25,387h0l-4.6,4.59h0l-4.59,4.6h0l-4.6,4.59h0l-4.59,4.6h0l-4.6,4.59h0l-4.59,4.59h0l-4.6,4.6h0l-9.18,9.19h0l-4.59,4.59h0l-4.59,4.59h0l-4.6,4.6h0l-4.59,4.59h0l-4.6,4.6h0l-4.59,4.59h0l-4.6,4.6h0l-4.59,4.59h0l-2.81,2.8.5.36Z" transform="translate(-51.81 -66.24)"/><path class="cls-6" d="M139.32,456.92l.4.45,1.73-1.73h0l4.59-4.6h0l4.6-4.59h0l4.59-4.6h0l4.6-4.59h0l4.59-4.6h0l4.6-4.59h0l4.59-4.59h0l4.59-4.6h0l4.59-4.59h0l4.59-4.6h0l4.6-4.59h0l4.59-4.59h0l4.6-4.6h0l4.59-4.59h0l4.6-4.6h0l4.59-4.59h0l4.6-4.6h0l4.59-4.59h0l4.6-4.59h0l4.59-4.6h0l4.6-4.59h0l.18-.19-.45-.4-.83.84h0l-4.59,4.6h0l-4.6,4.59h0l-4.59,4.6h0l-4.6,4.59h0l-4.59,4.6h0l-4.6,4.59h0l-4.59,4.59h0l-4.6,4.6h0l-4.59,4.59h0l-4.6,4.6h0L186.3,410h0l-4.59,4.59h0l-4.6,4.6h0l-4.59,4.59h0l-4.6,4.6h0l-4.59,4.59h0l-4.6,4.59h0l-4.59,4.6h0l-4.6,4.59h0L145,451.3h0l-4.6,4.59h0Z" transform="translate(-51.81 -66.24)"/><path class="cls-6" d="M135.27,451.79l.36.49,1.22-1.23h0l4.6-4.59h0l4.59-4.6h0l4.6-4.59h0l4.59-4.6h0l4.6-4.59h0l4.59-4.59h0l4.6-4.6h0l4.59-4.59h0l4.59-4.6h0l4.59-4.59h0l4.59-4.59h0l4.6-4.6h0l4.59-4.59h0l4.6-4.6,4.59-4.59h0l4.6-4.6h0L215,373h0l4.6-4.59h0l4.59-4.6h0l4.6-4.59h0l4.28-4.28-.49-.36-.29.29h0l-4.6,4.6h0l-4.59,4.6h0l-4.6,4.59h0l-4.59,4.6h0l-4.6,4.59h0l-4.59,4.6h0l-4.6,4.59h0l-4.59,4.59h0l-4.6,4.6h0l-4.59,4.59h0l-4.59,4.6h0l-4.6,4.59h0l-4.59,4.59h0l-4.6,4.6h0l-4.59,4.59h0l-4.6,4.6h0l-4.59,4.59h0l-4.6,4.59h0l-4.59,4.6h0l-4.6,4.59h0l-4.59,4.6h0Z" transform="translate(-51.81 -66.24)"/><path class="cls-6" d="M136.85,446.46h0l9.19-9.19h0l4.6-4.6h0l4.59-4.59h0l7.44-7.43,1.75-1.76h0l4.6-4.59h0l4.59-4.6h0l4.59-4.59h0l4.59-4.59h0l4.59-4.6h0l4.6-4.59h0l4.59-4.6h0l4.6-4.59h0l4.59-4.6h0l4.6-4.59h0l4.59-4.59h0l4.6-4.6h0l4.59-4.59,4.6-4.6h0l1.56-1.56-.51-.34-2.15,2.15h0l-4.59,4.6h0l-4.6,4.6-4.59,4.59h0l-4.6,4.6h0l-4.59,4.59h0l-4.6,4.6h0L195.49,387h0l-4.59,4.59h0l-4.59,4.6h0l-4.59,4.59h0l-4.6,4.6h0L172.52,410h0l-4.6,4.59h0l-4.59,4.6h0l-4.6,4.59h0l-4.59,4.6h0l-4.6,4.59h0L145,437.51h0l-4.6,4.6h0l-4.59,4.59h0l-2.35,2.35.33.52Z" transform="translate(-51.81 -66.24)"/><path class="cls-6" d="M137.62,454.88l3.83-3.83h0l4.59-4.59h0l4.6-4.6h0l4.59-4.59h0l4.6-4.6h0l4.59-4.59h0l4.6-4.59h0l4.59-4.6h0l4.59-4.59h0l4.59-4.6h0l4.59-4.59h0l4.6-4.59h0l4.59-4.6h0l4.6-4.59h0l4.59-4.6h0l4.6-4.59h0l4.59-4.6h0l4.6-4.59h0l4.59-4.59,4.6-4.6h0l4.59-4.59h0l2.29-2.29-.47-.38-2.91,2.92h0l-4.6,4.6h0l-4.59,4.59h0l-4.6,4.6-4.59,4.59h0l-4.6,4.6h0L204.68,387h0l-4.6,4.59h0l-4.59,4.6h0l-4.59,4.59h0l-4.59,4.6h0L181.71,410h0l-4.6,4.59h0l-4.59,4.6h0l-4.6,4.59h0l-4.59,4.6h0l-4.6,4.59h0l-9.19,9.19h0L145,446.7h0l-4.6,4.6h0l-3.11,3.11Z" transform="translate(-51.81 -66.24)"/><path class="cls-6" d="M131.16,442.11,130,443.24l.3.55,1.93-1.93h0l4.59-4.59h0l4.6-4.6h0l4.59-4.59h0l4.6-4.59h0l4.59-4.6h0l4.6-4.59h0l4.59-4.6h0l4.6-4.59h0l4.59-4.59h0l4.59-4.6h0l4.59-4.59h0l4.59-4.6h0l4.6-4.59h0l4.59-4.6h0l4.6-4.59h0l4.59-4.59h0l4.6-4.6h0l4.59-4.59h0l4.6-4.6h0l4.59-4.59.39-.39-.55-.3-.93.94h0l-4.6,4.59-4.59,4.6h0l-4.6,4.6h0l-4.59,4.59h0l-4.6,4.6h0l-4.59,4.59h0l-4.59,4.6h0L186.3,387h0l-4.59,4.59h0l-4.6,4.6h0l-4.59,4.59h0l-4.6,4.6h0L163.33,410h0l-4.6,4.59h0l-4.59,4.6h0l-4.6,4.59h0l-4.59,4.6h0l-4.6,4.59h0l-9,9-.23.22Z" transform="translate(-51.81 -66.24)"/><path class="cls-6" d="M132.26,437.27h0l4.59-4.6h0l4.6-4.59h0l4.59-4.59h0l4.6-4.6h0l4.59-4.59h0l4.6-4.6h0l4.59-4.59h0l4.6-4.59h0l4.59-4.6h0l4.59-4.59h0l4.59-4.6,4.59-4.59h0l4.6-4.6h0l4.59-4.59h0l4.6-4.59,4.59-4.6h0l4.6-4.59h0l4.59-4.6h0l4.6-4.59h0l1.92-1.92-.58-.27-2.44,2.44h0l-4.59,4.59h0l-4.6,4.6h0l-4.59,4.6h0l-4.6,4.59h0l-4.59,4.6-4.59,4.59h0l-4.59,4.6h0L181.71,387h0l-4.6,4.59h0l-4.59,4.6h0l-4.6,4.59h0l-4.59,4.6h0l-4.6,4.59h0l-4.59,4.59h0l-4.6,4.6h0L145,423.73h0l-4.6,4.6h0l-4.59,4.59h0l-4.6,4.59-2.63,2.64.27.58Z" transform="translate(-51.81 -66.24)"/><path class="cls-6" d="M132,446.74l.28-.28h0l4.59-4.6h0l4.6-4.59h0l4.59-4.6h0l4.6-4.59h0l4.59-4.59h0l4.6-4.6h0l4.59-4.59h0l4.6-4.6h0l4.59-4.59h0l4.59-4.59h0l4.59-4.6h0l4.59-4.59h0l4.6-4.6h0l4.59-4.59h0l4.6-4.6,4.59-4.59h0l4.6-4.59h0l4.59-4.6h0l4.6-4.59h0l4.59-4.6h0l3.34-3.33-.54-.32-3.89,3.9h0l-4.6,4.59h0l-4.59,4.6h0l-4.6,4.59h0l-4.59,4.6h0l-4.6,4.59h0l-4.59,4.6h0l-4.6,4.59h0l-4.59,4.59h0l-4.59,4.6h0l-4.6,4.59h0l-4.59,4.6h0l-4.6,4.59h0l-4.59,4.59h0l-4.6,4.6h0l-9.19,9.19h0L145,432.92h0l-4.6,4.59h0l-4.59,4.6h0l-4.1,4.1C131.77,446.38,131.87,446.56,132,446.74Z" transform="translate(-51.81 -66.24)"/><path class="cls-6" d="M127.66,391.33h0l4.6-4.6h0l4.59-4.59h0l4.6-4.6L146,373h0l4.6-4.59h0l4.59-4.6h0l4.6-4.59,4.59-4.6h0L169,350h0l4.59-4.59h0l1.89-1.9-1.12.28-1.86,1.86h0l-4.6,4.6h0l-4.59,4.59h0l-4.6,4.6h0l-4.59,4.6-4.6,4.59h0L145,373.2h0l-4.6,4.59h0l-4.59,4.6h0l-4.6,4.59h0l-4.59,4.59h0l-2,2.06c-.1.37-.19.75-.28,1.12Z" transform="translate(-51.81 -66.24)"/><path class="cls-6" d="M127.66,423.49h0l4.6-4.6h0l4.59-4.59h0l4.6-4.6h0l4.59-4.59h0l4.6-4.59h0l4.59-4.6h0l4.6-4.59h0l4.59-4.6h0l4.6-4.59h0l4.59-4.6h0L178.2,373h0l4.59-4.59,4.59-4.6h0l4.6-4.59h0l4.59-4.6h0l4.6-4.59,4.59-4.59h0l2-2.05-.69-.16-2.45,2.45h0l-4.6,4.6h0l-4.59,4.59-4.59,4.6h0L186.3,364h0l-4.59,4.59h0l-4.6,4.6-4.59,4.59h0l-4.6,4.6h0L163.33,387h0l-4.6,4.59h0l-4.59,4.6h0l-4.6,4.59h0l-4.59,4.6h0l-4.6,4.59h0l-4.59,4.59h0l-4.6,4.6h0l-4.59,4.59h0l-2.65,2.65c0,.23.1.46.16.69Z" transform="translate(-51.81 -66.24)"/><path class="cls-6" d="M126.14,434.2l1.52-1.53h0l4.6-4.59h0l4.59-4.59h0l4.6-4.6h0L146,414.3h0l4.6-4.6h0l4.59-4.59h0l4.6-4.59h0l4.59-4.6h0l4.6-4.59h0l4.59-4.6h0l4.59-4.59h0l4.59-4.6,4.59-4.59h0l4.6-4.59h0l4.59-4.6h0l4.6-4.59,4.59-4.6h0l4.6-4.59h0L215,345.4l-.63-.22-.45.45h0l-4.6,4.6h0l-4.59,4.59h0l-4.6,4.6h0l-4.59,4.6-4.59,4.59h0l-4.59,4.6h0l-4.59,4.59h0l-4.6,4.6h0L172.52,387h0l-4.6,4.59h0l-4.59,4.6h0l-4.6,4.59h0l-4.59,4.6h0l-4.6,4.59h0L145,414.54h0l-4.6,4.6h0L133.46,426l-2.3,2.3h0l-4.59,4.59h0l-.65.65Z" transform="translate(-51.81 -66.24)"/><path class="cls-6" d="M127.66,428.08h0l4.6-4.59h0l4.59-4.6h0l4.6-4.59h0l4.59-4.6h0l4.6-4.59h0l4.59-4.59h0l4.6-4.6h0l4.59-4.59h0l4.6-4.6h0l4.59-4.59h0l4.6-4.6h0L182.8,373h0l4.59-4.59h0l4.6-4.6h0l4.59-4.59h0l4.6-4.6h0l4.59-4.59h0l4.6-4.59h0l1.09-1.1-.65-.19-1.54,1.53h0l-4.59,4.6h0l-4.6,4.59h0l-4.59,4.59h0l-4.6,4.6h0l-4.59,4.59h0l-4.59,4.6h0l-4.6,4.59h0l-4.59,4.6h0l-4.6,4.59h0l-4.59,4.59h0l-4.6,4.6h0l-4.59,4.59h0l-4.6,4.6h0L145,410h0l-4.6,4.59h0l-4.59,4.6h0l-4.6,4.59h0l-4.59,4.6h0l-1.73,1.73c.06.22.13.43.19.65Z" transform="translate(-51.81 -66.24)"/><path class="cls-6" d="M127.4,437.53l.26-.26h0l4.6-4.6h0l4.59-4.59h0l8.86-8.85.33-.34h0l4.6-4.59h0l4.59-4.6h0l4.6-4.59h0l4.59-4.59h0l4.6-4.6h0l4.59-4.59h0l4.6-4.6h0l4.59-4.59h0l4.59-4.6h0L192,373h0l4.59-4.59h0l4.6-4.6h0l4.59-4.59h0l4.6-4.6h0L215,350h0l3.32-3.32-.6-.24-3.81,3.81h0l-4.6,4.59h0l-4.59,4.6h0l-4.6,4.6h0l-4.59,4.59h0l-4.6,4.6h0l-4.59,4.59h0l-4.59,4.6h0l-4.6,4.59h0l-4.59,4.59h0l-4.6,4.6h0l-4.59,4.59h0l-4.6,4.6h0L154.14,410h0l-4.6,4.59h0l-4.59,4.6h0l-4.6,4.59h0l-4.59,4.6h0l-4.6,4.59h0l-4,4Z" transform="translate(-51.81 -66.24)"/><path class="cls-6" d="M123.07,405.11h0l4.59-4.59h0l4.6-4.6h0l4.59-4.59h0l4.6-4.6,4.59-4.59h0l4.6-4.6h0l4.59-4.59h0l4.6-4.59,4.59-4.6h0l4.6-4.59h0l4.59-4.6h0l4.6-4.59h0l4.59-4.59h0l3.64-3.64-.93.08-3.8,3.8h0l-4.6,4.6h0l-4.59,4.59h0l-4.6,4.6h0l-4.59,4.6h0l-4.6,4.59h0l-4.59,4.6-4.6,4.59h0l-4.59,4.6h0l-4.6,4.59h0l-4.59,4.59h0l-4.6,4.6h0l-4.59,4.59h0l-4,4c0,.31,0,.62-.08.93Z" transform="translate(-51.81 -66.24)"/></g><rect class="cls-7" x="205.2" y="210.78" width="109.45" height="181.24"/><rect class="cls-6" x="327.39" y="242.36" width="82.33" height="150.29"/><rect class="cls-8" x="327.39" y="242.36" width="82.33" height="150.29"/><rect class="cls-7" x="422.48" y="298.76" width="82.33" height="93.44"/><rect class="cls-7" x="16.68" y="317.43" width="58.26" height="74.88"/><line class="cls-9" y1="391.98" x2="589.51" y2="391.98"/><circle class="cls-10" cx="590.18" cy="130.99" r="32.89" transform="translate(331.79 632.9) rotate(-82.53)"/><path class="cls-6" d="M172.45,196.23l-1.22,1.21h0l-3,3h0l-3,3h0l-3,3h0l-3,3h0l-3,3-3,3h0l-3,3h0l-3,3h0l-5.83,5.82-.14.15h0l-3,3h0l-3,3h0l-3,3h0l-3,3h0l-1.35,1.35h.57l1.49-1.5h0l3-3h0l3-3h0l3-3h0l3-3h0l3-3h0l3-3h0l3-3h0l3-3h0l3-3h0l3-3h0l3-3h0l3-3h0l3-3h0l3-3h0l.48-.48C172.44,196.61,172.45,196.42,172.45,196.23Z" transform="translate(-51.81 -66.24)"/><path class="cls-6" d="M172.27,199.39l-1,1h0l-3,3h0l-3,3h0l-3,3h0l-5.83,5.82-.14.15h0l-3,3h0l-3,3h0l-3,3h0l-3,3h0l-3,3h0l-3,3h0l-3,3h0l-3,3h0l-1.18,1.18.61-.06,4.12-4.12.15-.14h0l3-3h0l3-3h0l3-3h0l3-3h0l3-3h0l3-3h0l3-3h0l3-3h0l3-3h0l3-3h0l3-3h0l3-3h0l.27-.27C172.24,199.8,172.26,199.59,172.27,199.39Z" transform="translate(-51.81 -66.24)"/><path class="cls-6" d="M148.15,235.45c.41-.21.81-.43,1.21-.65l1.68-1.69h0l3-3h0l3-3h0l3-3h0l3-3h0l3-3h0l.68-.67.66-1.21-2.05,2h0l-3,3h0l-5.83,5.82-.14.15h0l-3,3h0l-3,3h0Z" transform="translate(-51.81 -66.24)"/><path class="cls-6" d="M142.78,237.84l.89-.34,1.4-1.4h0l3-3h0l3-3h0l3-3h0l3-3h0l3-3h0l3-3h0l3-3h0l3-3h0l.39-.39c.12-.3.23-.59.34-.89l-1.44,1.44-3,3h0l-3,3h0l-3,3h0l-3,3-3,3h0l-3,3h0l-3,3h0Z" transform="translate(-51.81 -66.24)"/><path class="cls-6" d="M142.09,236.1h0l3-3h0l3-3h0l3-3,3-3h0l3-3h0l3-3h0l3-3,3-3h0l3-3h0l1.88-1.88c.07-.25.14-.5.2-.76l-2.79,2.8h0l-3,3h0l-3,3h0l-3,3h0l-3,3h0l-3,3h0l-3,3h0l-3,3h0l-3,3h0l-3,3-2.93,2.93.75-.21Z" transform="translate(-51.81 -66.24)"/><path class="cls-6" d="M139.1,236.1h0l3-3h0l3-3h0l5.83-5.83.14-.15h0l3-3h0l3-3h0l6-6h0l3-3h0l3-3h0l2.76-2.76.12-.67-2.1,2.1-1.49,1.49h0l-3,3h0l-3,3h0l-3,3h0l-3,3h0l-3,3h0l-3,3h0l-3,3h0l-3,3h0l-3,3h0l-3,3h0l-3,3h0l-.74.74.67-.11.79-.79Z" transform="translate(-51.81 -66.24)"/><path class="cls-6" d="M98.75,160a45.67,45.67,0,0,0-6.88,6.88l2.44-2.45h0l3-3h0Z" transform="translate(-51.81 -66.24)"/><path class="cls-6" d="M171.85,187.87l-.62.62h0l-3,3h0l-3,3h0l-3,3h0l-3,3h0l-3,3h0l-3,3h0l-3,3h0l-3,3h0l-3,3h0l-3,3h0l-3,3h0l-3,3h0l-3,3h0l-3,3h0l-3,3h0l-3,3h0l-3,3h0l-.76.75.48.08,4-4h0l3-3h0l3-3h0L136,224.3l.15-.15h0l3-3h0l3-3h0l3-3h0l3-3h0l3-3h0l3-3h0l3-3h0l3-3h0l3-3h0l3-3h0l3-3h0l3-3C171.91,188.19,171.88,188,171.85,187.87Z" transform="translate(-51.81 -66.24)"/><path class="cls-6" d="M172.21,190.5l-1,1h0l-3,3h0l-3,3h0l-3,3h0l-4.48,4.48-1.49,1.49h0l-3,3h0l-3,3h0l-3,3h0l-3,3h0l-3,3h0l-3,3h0l-3,3h0l-3,3h0l-3,3h0l-3,3h0l-3,3h0l-1.11,1.11.5.05,1.32-1.32h0l3-3h0l3-3h0l3-3h0l3-3,3-3h0l3-3h0l3-3h0l6-6h0l3-3h0l3-3h0l4.83-4.83,1.14-1.14h0l3-3h0l3-3h0l3-3h0l.31-.31C172.24,190.84,172.23,190.67,172.21,190.5Z" transform="translate(-51.81 -66.24)"/><path class="cls-6" d="M172.41,193.28l-1.18,1.18h0l-3,3h0l-3,3h0l-3,3h0l-3,3h0l-3,3h0l-3,3h0l-3,3h0l-3,3h0l-3,3h0l-3,3-3,3h0l-3,3h0l-3,3h0l-6,6h0l-1.32,1.32.53,0,1.5-1.5h0l3-3h0l3-3h0l3-3h0l3-3h0l3-3h0l3-3h0l3-3h0l3-3,3-3h0l3-3h0l3-3h0l3-3h0l3-3h0l3-3h0l3-3h0l.48-.49C172.43,193.63,172.42,193.46,172.41,193.28Z" transform="translate(-51.81 -66.24)"/><path class="cls-6" d="M168.36,176.44l-.11.11h0l-3,3h0l-3,3h0l-3,3h0l-3,3h0l-3,3h0l-3,3h0l-3,3h0l-3,3h0l-3,3h0l-3,3h0l-3,3h0l-3,3h0l-3,3h0l-3,3h0l-3,3h0l-3,3h0l-3,3h0l-3,3h0l-3,3h0l-3,3h0l-.24.24.38.17.43-.43.14-.14h0l3-3h0l3-3h0l3-3h0l3-3h0l3-3h0l3-3h0l3-3h0l3-3h0l3-3h0l3-3h0l3-3h0l3-3h0l3-3h0l3-3h0l3-3h0l3-3h0l3-3h0l3-3h0l3-3h0l2.56-2.55C168.47,176.69,168.42,176.56,168.36,176.44Z" transform="translate(-51.81 -66.24)"/><path class="cls-6" d="M169.41,178.92c0-.13-.1-.26-.16-.39l-1,1h0l-3,3h0l-3,3h0l-3,3h0l-3,3h0l-3,3h0l-3,3h0l-3,3h0l-4.48,4.48-1.49,1.49h0l-3,3h0l-3,3h0l-3,3h0l-3,3h0l-3,3h0l-3,3h0l-3,3h0l-3,3h0l-3,3h0l-3,3h0l-1.14,1.13.4.16,1.45-1.45h0l3-3h0l3-3h0l6-6h0l3-3h0l3-3h0l6-6h0l3-3h0l3-3h0l3-3h0l3-3h0l3-3h0l3-3h0l3-3h0l3-3h0l3-3h0l3-3h0l3-3h0Z" transform="translate(-51.81 -66.24)"/><path class="cls-6" d="M165.18,170.66l-2.9,2.9h0l-3,3h0l-3,3h0l-3,3h0l-3,3h0l-3,3h0l-3,3h0l-3,3h0l-3,3h0l-3,3h0l-3,3h0l-3,3h0l-3,3h0l-3,3h0l-3,3h0l-3,3h0l-3,3h0l-3,3h0l-3,3h0l-3,3h0l-3,3h0l0,0,.34.22.42-.43h0l3-3h0l3-3,3-3h0l3-3h0l3-3h0l6-6h0l3-3h0l3-3h0l4.84-4.83,1.14-1.14h0l3-3h0l3-3h0l3-3h0l3-3h0l3-3h0l3-3h0l3-3h0l3-3h0l3-3h0l2.4-2.41Z" transform="translate(-51.81 -66.24)"/><path class="cls-6" d="M166.52,172.86l-.2-.35-1.06,1.05h0l-3,3h0l-3,3h0l-3,3h0l-3,3h0l-3,3h0l-3,3h0l-3,3h0l-3,3h0l-3,3h0l-3,3h0l-3,3h0l-3,3h0l-3,3h0l-3,3h0l-3,3h0l-3,3h0l-3,3-3,3h0l-3,3h0l-3,3h0l-1.19,1.19.35.2,1.55-1.55h0l3-3h0l3-3h0l3-3h0l3-3h0l3-3h0l3-3h0l3-3h0l3-3h0l3-3h0l3-3h0l3-3h0l3-3h0l3-3h0l3-3h0l3-3h0l3-3h0l3-3h0l3-3,3-3h0l3-3h0Z" transform="translate(-51.81 -66.24)"/><path class="cls-6" d="M161.58,165.85l-.25-.3-2,2h0l-3,3h0l-3,3h0l-3,3h0l-3,3h0l-3,3h0l-3,3h0l-3,3h0l-3,3h0l-3,3h0l-3,3h0l-3,3h0l-3,3h0l-3,3h0l-3,3h0l-3,3-3,3h0l-3,3h0l-3,3h0l-6,6h0l-2.16,2.17.29.25,2.59-2.58h0l3-3h0l3-3h0l3-3h0l3-3h0l3-3h0l3-3h0l3-3h0l3-3h0l3-3h0l3-3h0l3-3h0l3-3h0l3-3h0l3-3h0l3-3h0l3-3,3-3h0l3-3h0l3-3h0l3-3Z" transform="translate(-51.81 -66.24)"/><path class="cls-6" d="M160.17,164.28l-.27-.29-.61.61-3,3h0l-3,3h0l-3,3h0l-3,3h0l-3,3h0l-3,3h0l-3,3h0l-3,3h0l-3,3h0l-3,3h0l-3,3h0l-3,3h0l-3,3h0l-3,3h0l-3,3h0l-3,3h0l-3,3h0l-3,3h0l-3,3h0l-3,3h0l-3,3h0l-.74.74.28.27,1.17-1.17h0l3-3h0l3-3h0l3-3h0l3-3,3-3h0l3-3h0l3-3h0l5.75-5.75.22-.22h0l3-3h0l3-3h0l3-3h0l3-3h0l3-3h0l3-3h0l3-3h0l3-3h0l3-3h0l3-3h0l3-3h0l3-3h0Z" transform="translate(-51.81 -66.24)"/><path class="cls-6" d="M162.92,167.49l-.24-.31-.4.41h0l-3,3-3,3h0l-3,3h0l-3,3h0l-3,3h0l-3,3h0l-3,3h0l-3,3h0l-3,3h0l-3,3h0l-3,3h0l-3,3h0l-3,3h0l-3,3h0l-5.83,5.82-.15.15h0l-3,3h0l-3,3h0l-3,3h0l-3,3h0l-3,3h0l-.53.54.31.24.94-.94h0l3-3h0l3-3h0l3-3h0l3-3h0l3-3h0l3-3h0l3-3h0l3-3h0l3-3h0l3-3h0l3-3h0l3-3h0l3-3h0l3-3h0l3-3h0l3-3h0l3-3h0l3-3h0l3-3h0l3-3h0Z" transform="translate(-51.81 -66.24)"/><path class="cls-6" d="M158.69,162.77l-.28-.27-2.1,2.1h0l-3,3h0l-3,3h0l-3,3h0l-3,3h0l-3,3h0l-3,3h0l-3,3h0l-3,3h0l-3,3h0l-3,3h0l-3,3h0l-3,3h0L116,204.91l-1.5,1.49h0l-3,3h0l-3,3h0l-3,3h0l-3,3h0l-3,3h0l-3,3h0l-2.24,2.24c.09.09.19.18.28.28l2.67-2.68h0l3-3h0l3-3h0l6-6h0l3-3h0l3-3h0l3-3h0l3-3h0l3-3h0l3-3h0l3-3h0l3-3h0l3-3h0l3-3h0l3-3h0l3-3h0l3-3,3-3h0l3-3h0l3-3h0Z" transform="translate(-51.81 -66.24)"/><path class="cls-6" d="M132.42,152.66h0l-3,3h0l-3,3h0l-3,3h0l-3,3h0l-3,3h0l-3,3h0l-3,3h0l-3,3h0l-3,3h0l-3,3h0l-3,3h0l-3,3h0l-3,3h0l-3,3h0l-3,3h0l-3,3h0l-2.21,2.2c0,.16.06.32.08.47l2.84-2.83h0l3-3h0l3-3h0l3-3h0l3-3h0l3-3h0l3-3h0l3-3,3-3h0l3-3h0l3-3h0l3-3h0l3-3h0l3-3h0l3-3h0l3-3h0l3-3h0l1.83-1.83-.47-.08Z" transform="translate(-51.81 -66.24)"/><path class="cls-6" d="M129.43,152.66l-3,3h0l-3,3h0l-3,3h0l-3,3-3,3h0l-3,3h0l-3,3h0l-3,3h0l-3,3h0l-3,3h0l-3,3h0l-3,3h0l-3,3h0l-3,3h0l-3,3h0L82.09,200l.06.49.22-.22h0l3-3h0l3-3h0l3-3h0l3-3h0l3-3h0l3-3h0l3-3h0l3-3h0l3-3h0l3-3h0l3-3h0l3-3h0l3-3,3-3h0l3-3h0l3-3h0l2.21-2.21-.49,0Z" transform="translate(-51.81 -66.24)"/><path class="cls-6" d="M126.45,152.66h0l-3,3h0l-3,3h0l-3,3h0l-3,3h0l-3,3h0l-3,3h0l-3,3h0l-3,3h0l-3,3h0l-3,3h0l-3,3h0l-3,3h0l-3,3h0l-3,3h0l-2.76,2.75,0,.53.45-.46h0l3-3h0l3-3h0l3-3h0l3-3h0l3-3h0l3-3h0l3-3h0l3-3,3-3h0l3-3h0l3-3h0l3-3h0l3-3h0l3-3h0l3-3h0l2.44-2.44-.53,0Z" transform="translate(-51.81 -66.24)"/><path class="cls-6" d="M123.46,152.66h0l-3,3h0l-3,3-3,3h0l-3,3h0l-3,3h0l-3,3h0l-3,3h0l-3,3h0l-3,3h0l-3,3h0l-3,3h0l-3,3h0l-3,3h0l-2.79,2.78v.56l.51-.51h0l3-3h0l3-3h0l3-3h0l3-3h0l3-3h0l3-3h0l3-3h0l3-3h0l3-3h0l3-3h0l3-3h0l3-3h0l3-3,3-3h0l2.5-2.5h-.55Z" transform="translate(-51.81 -66.24)"/><path class="cls-6" d="M117.49,152.66l-3,3h0l-3,3h0l-3,3h0l-3,3h0l-3,3h0l-3,3h0l-3,3h0l-3,3h0l-3,3h0l-3,3h0l-3,3h0l-2.15,2.15c0,.22-.08.44-.11.66l3-3h0l3-3h0l3-3h0l3-3h0l3-3h0l3-3h0l3-3h0l3-3h0l3-3h0l3-3h0l3-3h0l3-3h0l2-2-.66.11Z" transform="translate(-51.81 -66.24)"/><path class="cls-6" d="M118.2,239.08l3-3h0l3-3h0l3-3h0l3-3h0l3-3h0l3-3h0l3-3h0l3-3h0l3-3h0l3-3h0l3-3h0l3-3h0l3-3h0l3-3h0l3-3h0l3-3h0l3-3h0l2.51-2.51c0-.15-.07-.3-.1-.45l-.14.13h0l-3,3h0l-3,3h0l-3,3h0l-3,3h0l-3,3h0l-3,3h0l-3,3h0l-3,3h0l-5.83,5.82-.14.15h0l-3,3h0l-3,3h0l-3,3h0l-3,3h0l-3,3h0l-3,3h0l-3,3h0l-3,3h0l-.27.27.46.1.52-.53Z" transform="translate(-51.81 -66.24)"/><path class="cls-6" d="M118.2,236.1h0l3-3h0l3-3h0l3-3h0l3-3h0l3-3h0l3-3h0l3-3h0l3-3h0l3-3h0l3-3h0l3-3h0l3-3h0l3-3h0l3-3h0l3-3h0l3-3h0l3-3h0l1.92-1.92c0-.15-.07-.29-.11-.43l-2.52,2.51h0l-3,3h0l-3,3h0l-3,3h0l-3,3h0l-3,3h0l-3,3h0l-3,3h0l-3,3h0l-3,3-3,3h0l-3,3h0l-3,3h0l-6,6h0l-3,3h0l-3,3h0l-5.64,5.64.43.12Z" transform="translate(-51.81 -66.24)"/><path class="cls-6" d="M115.21,236.1h0l3-3h0l3-3h0l3-3h0l3-3h0l3-3h0l3-3h0l3-3,3-3h0l3-3h0l3-3h0l4.83-4.83,1.14-1.14h0l3-3h0l3-3h0l3-3h0l3-3h0l3-3h0l3-3h0l1.23-1.24c0-.14-.08-.28-.13-.41l-1.81,1.81h0l-3,3h0l-3,3h0l-3,3h0l-3,3h0l-3,3h0l-3,3h0l-3,3h0l-3,3h0l-3,3h0l-3,3h0l-3,3h0l-3,3h0l-3,3h0l-3,3h0l-3,3h0l-3,3h0l-3,3h0l-3,3-1.94,1.94.41.14Z" transform="translate(-51.81 -66.24)"/><path class="cls-6" d="M112.21,152.52l-.86.31-2.82,2.82h0l-3,3h0l-3,3h0l-3,3h0l-3,3h0l-3,3h0l-3,3h0l-3,3h0l-2.94,2.94c-.11.28-.21.57-.31.86l1-1h0l3-3h0l3-3h0l3-3h0l3-3h0l3-3h0l3-3h0l3-3h0l3-3h0Z" transform="translate(-51.81 -66.24)"/><path class="cls-6" d="M109.24,233.11h0l3-3h0l3-3h0l3-3h0l3-3h0l3-3h0l3-3h0l3-3h0l3-3h0l3-3h0l3-3h0l3-3h0l3-3h0l3-3h0l3-3h0l3-3h0l3-3h0l3-3h0l3-3h0l3-3h0l1.59-1.59-.18-.37-2.12,2.12h0l-3,3h0l-3,3h0l-3,3h0l-3,3h0l-3,3h0l-3,3h0l-3,3h0l-3,3h0l-3,3h0l-3,3h0l-3,3h0l-6,6h0l-3,3h0l-3,3h0l-5.83,5.82-.15.15h0l-3,3h0l-3,3h0l-2.25,2.25.37.19Z" transform="translate(-51.81 -66.24)"/><path class="cls-6" d="M105.92,155.27l-.37.38h0l-3,3-3,3h0l-3,3h0l-3,3h0l-3,3-3,3h0l-.5.5c-.2.37-.39.75-.58,1.13l1.79-1.79h0l3-3h0l3-3,3-3h0l3-3h0l3-3h0l3-3,.79-.8Z" transform="translate(-51.81 -66.24)"/><path class="cls-6" d="M103.27,230.12h0l5.83-5.83.14-.15h0l3-3h0l3-3h0l3-3h0l3-3h0l3-3h0l3-3h0l3-3h0l3-3h0l3-3h0l3-3h0l3-3h0l3-3h0l3-3h0l3-3h0l3-3h0l3-3h0l3-3,3-3h0l1.21-1.2-.23-.32-1.69,1.69h0l-3,3h0l-3,3h0l-3,3h0l-3,3h0l-3,3h0l-3,3h0l-3,3h0l-3,3h0l-3,3h0l-3,3h0l-6,6h0l-3,3h0l-3,3h0l-3,3h0l-3,3h0l-3,3h0l-3,3h0l-3,3h0l-3,3h0l-1.82,1.83.32.23Z" transform="translate(-51.81 -66.24)"/><path class="cls-6" d="M92.93,225l.26.3,1.12-1.13h0l3-3h0l3-3h0l3-3h0l3-3h0l3-3h0l3-3h0l3-3h0l3-3h0l3-3h0l3-3h0l3-3h0l3-3h0l3-3h0l3-3h0l3-3h0l3-3h0l3-3h0l3-3h0l3-3h0l3-3h0l3-3h0l.12-.12-.29-.26-.54.54h0l-3,3h0l-3,3h0l-3,3h0l-3,3h0l-3,3h0l-3,3h0l-3,3h0l-3,3h0l-3,3h0l-3,3h0l-3,3h0l-3,3h0l-3,3h0l-3,3h0l-3,3h0l-3,3h0l-3,3h0l-3,3h0l-3,3h0l-3,3h0l-3,3h0Z" transform="translate(-51.81 -66.24)"/><path class="cls-6" d="M90.3,221.65l.23.32.8-.8h0l3-3h0l3-3h0l3-3h0l3-3h0l3-3h0l3-3h0l3-3h0l3-3h0l3-3h0l3-3h0l3-3h0l3-3h0l3-3h0l3-3,3-3h0l3-3h0l3-3h0l3-3h0l3-3h0l3-3h0l2.78-2.78-.32-.24-.19.19h0l-3,3h0l-3,3h0l-3,3h0l-3,3h0l-3,3h0l-3,3h0l-3,3h0l-3,3h0l-3,3h0l-3,3h0l-3,3h0l-3,3h0l-3,3h0l-3,3h0l-3,3h0l-3,3h0l-3,3h0l-3,3h0l-3,3h0l-3,3h0l-3,3h0Z" transform="translate(-51.81 -66.24)"/><path class="cls-6" d="M91.33,218.18h0l6-6h0l3-3h0l3-3h0l4.83-4.83,1.14-1.14h0l3-3h0l3-3h0l3-3h0l3-3h0l3-3h0l3-3h0l3-3h0l3-3h0l3-3h0l3-3h0l3-3h0l3-3h0l3-3,3-3h0l1-1-.33-.21-1.4,1.39h0l-3,3h0l-3,3-3,3h0l-3,3h0l-3,3h0l-3,3h0l-3,3h0l-3,3h0l-3,3h0l-3,3h0l-3,3h0l-3,3h0l-3,3h0l-3,3h0l-3,3h0l-3,3h0l-3,3h0l-3,3h0l-3,3h0l-3,3h0l-1.53,1.53c.07.11.14.22.22.33Z" transform="translate(-51.81 -66.24)"/><path class="cls-6" d="M91.83,223.66l2.48-2.49h0l3-3h0l3-3h0l3-3h0l3-3h0l3-3h0l3-3h0l3-3h0l3-3h0l3-3h0l3-3h0l3-3h0l3-3h0l3-3h0l3-3h0l3-3h0l3-3h0l3-3h0l3-3,3-3h0l3-3h0l1.49-1.49-.31-.24-1.89,1.89h0l-3,3h0l-3,3h0l-3,3-3,3h0l-3,3h0l-3,3h0l-3,3h0l-3,3h0l-3,3h0l-3,3h0l-3,3h0l-3,3h0l-3,3h0l-3,3h0l-3,3h0l-3,3h0l-6,6h0l-3,3h0l-3,3h0l-2,2Z" transform="translate(-51.81 -66.24)"/><path class="cls-6" d="M87.63,215.36l-.73.73c.06.12.12.24.19.36l1.25-1.25h0l3-3h0l3-3h0l3-3h0l3-3h0l3-3h0l3-3h0l3-3h0l3-3h0l3-3h0l3-3h0l3-3h0l3-3h0l3-3h0l3-3h0l3-3h0l3-3h0l3-3h0l3-3h0l3-3h0l3-3,.25-.26L148,155l-.6.61h0l-3,3-3,3h0l-3,3h0l-3,3h0l-3,3h0l-3,3h0l-3,3h0l-3,3h0l-3,3h0l-3,3h0l-3,3h0l-3,3h0l-3,3h0l-3,3h0l-3,3h0l-3,3h0l-3,3h0l-3,3h0l-5.82,5.82-.15.15Z" transform="translate(-51.81 -66.24)"/><path class="cls-6" d="M88.34,212.21h0l3-3h0l3-3h0l3-3h0l3-3h0l3-3h0l3-3h0l3-3h0l3-3h0l3-3h0l3-3h0l3-3,3-3h0l3-3h0l3-3h0l3-3,3-3h0l3-3h0l3-3h0l3-3h0l1.25-1.25-.37-.18-1.59,1.59h0l-3,3h0l-3,3h0l-3,3h0l-3,3h0l-3,3-3,3h0l-3,3h0l-3,3h0l-3,3h0l-3,3h0l-3,3h0l-3,3h0l-3,3h0l-3,3h0l-3,3h0l-3,3h0l-3,3h0l-3,3h0l-3,3-1.71,1.71c.06.13.12.25.17.38Z" transform="translate(-51.81 -66.24)"/><path class="cls-6" d="M88.16,218.37l.18-.19h0l3-3h0l3-3h0l3-3h0l3-3h0l3-3h0l3-3h0l3-3h0l3-3h0l3-3h0l3-3h0l3-3h0l3-3h0l3-3h0l3-3h0l3-3,3-3h0l3-3h0l3-3h0l3-3h0l3-3h0l2.17-2.17-.35-.2-2.53,2.53h0l-3,3h0l-3,3h0l-3,3h0l-3,3h0l-3,3h0l-3,3h0l-3,3h0l-3,3h0l-3,3h0l-3,3h0l-3,3h0l-3,3h0l-3,3h0l-3,3h0l-6,6h0l-3,3h0l-3,3h0l-3,3h0L88,218Z" transform="translate(-51.81 -66.24)"/><path class="cls-6" d="M85.36,182.36h0l3-3h0l3-3h0l3-3,3-3h0l3-3h0l3-3h0l3-3,3-3h0l3-3h0l3-3h0l1.24-1.23-.74.18-1.21,1.21h0l-3,3h0l-3,3h0l-3,3h0l-3,3-3,3h0l-3,3h0l-3,3h0l-3,3h0l-3,3h0l-3,3h0l-1.34,1.33-.18.73Z" transform="translate(-51.81 -66.24)"/><path class="cls-6" d="M85.36,203.26h0l3-3h0l3-3h0l3-3h0l3-3h0l3-3h0l3-3h0l3-3h0l3-3h0l3-3h0l3-3h0l3-3h0l3-3,3-3h0l3-3h0l3-3h0l3-3,3-3h0l1.33-1.33-.45-.1-1.6,1.59h0l-3,3h0l-3,3-3,3h0l-3,3h0l-3,3h0l-3,3-3,3h0l-3,3h0l-3,3h0l-3,3h0l-3,3h0l-3,3h0l-3,3h0l-3,3h0l-3,3h0l-3,3h0l-3,3h0l-1.72,1.72.09.45Z" transform="translate(-51.81 -66.24)"/><path class="cls-6" d="M84.37,210.22l1-1h0l3-3h0l3-3h0l3-3h0l3-3h0l3-3h0l3-3h0l3-3h0l3-3h0l3-3h0l3-3h0l3-3h0l3-3,3-3h0l3-3h0l3-3h0l3-3,3-3h0l3-3h0l3-3-.41-.14-.29.29h0l-3,3h0l-3,3h0l-3,3h0l-3,3-3,3h0l-3,3h0l-3,3h0l-3,3h0l-3,3h0l-3,3h0l-3,3h0l-3,3h0l-3,3h0l-3,3h0l-3,3h0l-3,3h0l-4.48,4.48-1.49,1.49h0l-3,3h0l-.43.42Z" transform="translate(-51.81 -66.24)"/><path class="cls-6" d="M85.36,206.24h0l3-3h0l3-3h0l3-3h0l3-3h0l3-3h0l3-3h0l3-3h0l3-3h0l3-3h0l3-3h0l3-3h0l3-3h0l3-3h0l3-3h0l3-3h0l3-3h0l3-3h0l3-3h0l.71-.71-.42-.12-1,1h0l-3,3h0l-3,3h0l-3,3h0l-3,3h0l-3,3h0l-3,3h0l-3,3h0l-3,3h0l-3,3h0l-3,3h0l-3,3h0l-3,3h0l-3,3h0l-3,3h0l-3,3h0l-3,3h0l-3,3h0l-3,3h0l-1.13,1.12.12.43Z" transform="translate(-51.81 -66.24)"/><path class="cls-6" d="M85.19,212.38l.17-.17h0l3-3h0l3-3h0l5.75-5.75.22-.22h0l3-3h0l3-3h0l3-3h0l3-3h0l3-3h0l3-3h0l3-3h0l3-3h0l3-3h0l3-3h0l3-3h0l3-3h0l3-3h0l3-3h0l3-3h0l2.15-2.16-.39-.16-2.47,2.48h0l-3,3h0l-3,3h0l-3,3h0l-3,3h0l-3,3h0l-3,3h0l-3,3h0l-3,3h0l-3,3h0l-3,3h0l-3,3h0l-3,3h0l-3,3h0l-3,3h0l-3,3h0l-3,3h0l-3,3h0l-3,3h0L85,212C85.08,212.12,85.13,212.25,85.19,212.38Z" transform="translate(-51.81 -66.24)"/><path class="cls-6" d="M82.37,191.31h0l3-3h0l3-3h0l3-3h0l3-3,3-3h0l3-3h0l3-3h0l3-3,3-3h0l3-3h0l3-3h0l3-3h0l3-3h0l2.36-2.36-.6.05-2.47,2.47h0l-3,3h0l-3,3h0l-3,3h0l-3,3h0l-3,3h0l-3,3-3,3h0l-3,3h0l-3,3h0l-3,3h0l-3,3h0l-3,3h0l-2.6,2.6-.06.6Z" transform="translate(-51.81 -66.24)"/><path class="cls-11" d="M181.61,244.49a3.07,3.07,0,1,1-3.07-3.07A3.07,3.07,0,0,1,181.61,244.49Z" transform="translate(-51.81 -66.24)"/><circle class="cls-11" cx="463.64" cy="3.57" r="3.07"/><path class="cls-11" d="M575,241.42a6.14,6.14,0,1,1-6.14-6.14A6.14,6.14,0,0,1,575,241.42Z" transform="translate(-51.81 -66.24)"/><polygon class="cls-12" points="201.75 75.44 185.98 56.67 201.75 56.67 201.75 75.44"/><polygon class="cls-11" points="131.45 56.66 131.45 7.36 201.75 7.36 201.75 45.42 201.75 56.66 201.75 56.67 185.98 56.67 185.97 56.66 131.45 56.66"/><line class="cls-11" x1="184.68" y1="24.8" x2="144.36" y2="24.8"/><line class="cls-11" x1="184.68" y1="39.58" x2="154.31" y2="39.58"/><polygon class="cls-12" points="374.99 198.2 399.11 169.49 374.99 169.49 374.99 198.2"/><polygon class="cls-11" points="482.5 169.48 482.5 94.08 374.99 94.08 374.99 152.29 374.99 169.48 374.99 169.49 399.11 169.49 399.12 169.48 482.5 169.48"/><line class="cls-11" x1="401.09" y1="120.75" x2="462.77" y2="120.75"/><line class="cls-11" x1="401.09" y1="143.36" x2="447.54" y2="143.36"/><path class="cls-13" d="M298.33,212.79,231.67,227.3a3.42,3.42,0,0,1-3.73-1.74L197.57,157.9a6.44,6.44,0,0,0-8.71-2.67l-2,1.06,31.53,79.36,0,.09a4.22,4.22,0,0,0,4.8,2.1h0l81.21-21.17A5.2,5.2,0,0,0,298.33,212.79Z" transform="translate(-51.81 -66.24)"/><path d="M189.76,330.4s-5.43,11.25-9.48,13.81l-11.09,2.63a8.75,8.75,0,0,0-6.95,4.38l29.31,13.56,14.1-27.52Z" transform="translate(-51.81 -66.24)"/><path class="cls-7" d="M341.64,232.66s-69.79,2.62-102.53,7.59A30,30,0,0,0,217,256.14l-38.5,74.41,34.1,17.94L252.15,277,324,274.85Z" transform="translate(-51.81 -66.24)"/><path class="cls-7" d="M344.39,215.75a25.29,25.29,0,0,1-4.25,8.41c-16.35,20.75-50.23-4.61-77.91-4.4-3.83,0-7.22.1-8,1.33-1.38,2.06-3,5-4,4.95-1.15-.1.65-4.14,1.67-7.18,0,0-3.41,8.41-4.66,7.95-1.51-.56,2.34-10.14,2.34-10.14s-4.9,9.81-6.16,8.28,4.07-10.25,4.07-10.25-5,7.78-6.66,7c-1.31-.64,3-6.56,7.35-11.25a18,18,0,0,1,9.72-5.39,63.33,63.33,0,0,1,16.32-.56s28,3.12,51.27,6.91l9-41.78a13.67,13.67,0,0,1,10.13-10.53c4-.92,8.52-.51,11.48,4.17a13.4,13.4,0,0,1,1.27,11.19Z" transform="translate(-51.81 -66.24)"/><path d="M256.31,347s7.67,14.09,7.28,18.86L259,376.32a8.72,8.72,0,0,0-.69,8.18l28.47-15.25-13.55-27.91Z" transform="translate(-51.81 -66.24)"/><path class="cls-7" d="M348.66,223.81s-97.5-5.77-125.59,20.68c-22.63,21.32,27.29,112.93,27.29,112.93l35.53-15L257,277.89l83-1.08s33.73-9.64,25.05-53Z" transform="translate(-51.81 -66.24)"/><path class="cls-14" d="M397.73,156.6s2.08-10.67-10-15c-10.77-3.91-11.77-15-11.77-15s-3.44-8.67-13.15-8.12S358,102.54,341.49,99.27c-2.49-.49-4.78.51-6.78,2.17-6.13,5.12-7.14,14.2-2.75,20.88l22.51,34.28Z" transform="translate(-51.81 -66.24)"/><polygon class="cls-7" points="283.45 99.57 272.83 73.12 282.08 60.02 304.86 93.6 283.45 99.57"/><polygon class="cls-14" points="276.95 81.61 281.57 74.18 274.69 76.12 276.95 81.61"/><path class="cls-7" d="M351.85,108c5.69,11-4.17,27.45-15.9,33.5s-21.06,2.12-25.49-9.49c-4.14-10.82-1.89-27,9.84-33S346.15,96.94,351.85,108Z" transform="translate(-51.81 -66.24)"/><path class="cls-14" d="M353,111.08C349.3,99.4,337.5,93.7,324.78,97.21c-10,2.77-16.46,12.55-17.15,22.43.15,0,8.08-.21,11.47-9,0,0,.94,14.16,15.88,11.41l6.63,15.61C350.47,133.55,357.13,124,353,111.08Z" transform="translate(-51.81 -66.24)"/><path class="cls-7" d="M322,135.9a4.26,4.26,0,0,0,3.72-3.85" transform="translate(-51.81 -66.24)"/><path class="cls-7" d="M336.62,132.69a6.62,6.62,0,0,0,3.68-2.81c1.85-2.85,1.34-6.47-1.14-8.08-1.69-1.09-3.45-.7-5,.56" transform="translate(-51.81 -66.24)"/><path class="cls-7" d="M334.72,129s.69-2.77,3.13-2.25" transform="translate(-51.81 -66.24)"/><path class="cls-14" d="M343.22,96.61a7.67,7.67,0,1,0,7.23-8.08A7.68,7.68,0,0,0,343.22,96.61Z" transform="translate(-51.81 -66.24)"/><path d="M329.94,157.67l22.57-8.06s27.07,44.92,28,74.79c0,0-31.88-.59-59.33-.89Z" transform="translate(-51.81 -66.24)"/><g class="cls-15"><line class="cls-16" x1="283.65" y1="104.6" x2="292.74" y2="104.6"/><line class="cls-16" x1="288.2" y1="95.51" x2="296.67" y2="91.99"/><line class="cls-16" x1="302.46" y1="94.68" x2="302.46" y2="104.6"/><line class="cls-16" x1="298.12" y1="116.58" x2="304.11" y2="110.38"/><line class="cls-16" x1="286.13" y1="115.34" x2="285.1" y2="122.78"/><line class="cls-16" x1="293.78" y1="125.68" x2="302.46" y2="127.33"/><line class="cls-16" x1="309.69" y1="126.5" x2="315.47" y2="120.72"/><line class="cls-16" x1="298.12" y1="134.15" x2="304.11" y2="138.9"/><line class="cls-16" x1="304.11" y1="148.96" x2="313.2" y2="148.96"/><line class="cls-16" x1="308.66" y1="139.86" x2="317.13" y2="136.35"/><line class="cls-16" x1="322.91" y1="139.04" x2="322.91" y2="148.96"/><line class="cls-16" x1="318.57" y1="160.94" x2="324.57" y2="154.74"/><line class="cls-16" x1="306.59" y1="159.7" x2="305.56" y2="167.14"/><line class="cls-16" x1="314.24" y1="170.04" x2="322.91" y2="171.69"/><line class="cls-16" x1="330.15" y1="170.86" x2="335.93" y2="165.08"/><line class="cls-16" x1="318.57" y1="178.51" x2="324.57" y2="183.26"/><line class="cls-16" x1="263.23" y1="130.12" x2="272.32" y2="130.12"/><line class="cls-16" x1="267.77" y1="121.03" x2="276.24" y2="117.51"/><line class="cls-16" x1="277.69" y1="142.11" x2="283.68" y2="135.91"/><line class="cls-16" x1="265.71" y1="140.87" x2="264.67" y2="148.31"/><line class="cls-16" x1="273.35" y1="151.2" x2="282.03" y2="152.85"/><line class="cls-16" x1="289.26" y1="152.03" x2="295.05" y2="146.24"/><line class="cls-16" x1="277.69" y1="159.67" x2="283.68" y2="164.42"/></g><path class="cls-7" d="M318.77,228.31a25.3,25.3,0,0,1-6.68,6.65c-22,14.57-46.24-20.14-72.59-28.64-3.64-1.17-6.88-2.17-8-1.26-2,1.53-4.44,3.83-5.37,3.44s1.92-3.73,3.85-6.3c0,0-5.88,6.92-6.92,6.09-1.26-1,5.4-8.89,5.4-8.89s-7.73,7.77-8.45,5.93,7.08-8.45,7.08-8.45-7.23,5.8-8.52,4.55c-1.05-1,4.87-5.3,10.51-8.37A17.91,17.91,0,0,1,240,191a63.34,63.34,0,0,1,15.67,4.59s25.59,11.75,46.51,22.66l21.7-36.83a13.67,13.67,0,0,1,12.92-6.81c4.1.38,8.26,2.19,9.6,7.56a13.46,13.46,0,0,1-2.31,11Z" transform="translate(-51.81 -66.24)"/><path class="cls-14" d="M303,208.33l25.06,17.72s40-50.36,21.51-62.53C332.17,152.05,303,208.33,303,208.33Z" transform="translate(-51.81 -66.24)"/><g class="cls-17"><line class="cls-16" x1="283.65" y1="104.6" x2="292.74" y2="104.6"/><line class="cls-16" x1="288.2" y1="95.51" x2="296.67" y2="91.99"/><line class="cls-16" x1="302.46" y1="94.68" x2="302.46" y2="104.6"/><line class="cls-16" x1="298.12" y1="116.58" x2="304.11" y2="110.38"/><line class="cls-16" x1="286.13" y1="115.34" x2="285.1" y2="122.78"/><line class="cls-16" x1="293.78" y1="125.68" x2="302.46" y2="127.33"/><line class="cls-16" x1="309.69" y1="126.5" x2="315.47" y2="120.72"/><line class="cls-16" x1="298.12" y1="134.15" x2="304.11" y2="138.9"/><line class="cls-16" x1="304.11" y1="148.96" x2="313.2" y2="148.96"/><line class="cls-16" x1="308.66" y1="139.86" x2="317.13" y2="136.35"/><line class="cls-16" x1="322.91" y1="139.04" x2="322.91" y2="148.96"/><line class="cls-16" x1="318.57" y1="160.94" x2="324.57" y2="154.74"/><line class="cls-16" x1="306.59" y1="159.7" x2="305.56" y2="167.14"/><line class="cls-16" x1="314.24" y1="170.04" x2="322.91" y2="171.69"/><line class="cls-16" x1="330.15" y1="170.86" x2="335.93" y2="165.08"/><line class="cls-16" x1="318.57" y1="178.51" x2="324.57" y2="183.26"/><line class="cls-16" x1="263.23" y1="130.12" x2="272.32" y2="130.12"/><line class="cls-16" x1="267.77" y1="121.03" x2="276.24" y2="117.51"/><line class="cls-16" x1="277.69" y1="142.11" x2="283.68" y2="135.91"/><line class="cls-16" x1="265.71" y1="140.87" x2="264.67" y2="148.31"/><line class="cls-16" x1="273.35" y1="151.2" x2="282.03" y2="152.85"/><line class="cls-16" x1="289.26" y1="152.03" x2="295.05" y2="146.24"/><line class="cls-16" x1="277.69" y1="159.67" x2="283.68" y2="164.42"/></g><path class="cls-11" d="M141.16,120.55a6.26,6.26,0,0,1-7.11,6.21c-4.14-.81-6.15-5.44-9.37-8.18a6,6,0,0,0-5.16-1.63,5.85,5.85,0,0,0-2.26,1.28c-2.5,2.13-3.91,5.21-5.65,8s-4.15,5.49-7.38,6-6.31-1.27-8.33-3.72S92.78,123,91.72,120" transform="translate(-51.81 -66.24)"/><path class="cls-11" d="M106.24,359.72A20.08,20.08,0,0,1,95,327c1.51-1.76,3.47-3.33,5.78-3.55s4.87,1.4,5,3.71a4.72,4.72,0,0,1-.72,2.57c-3.36,5.94-13.13,4.92-17.31-.47s-4.08-12.95-2.78-19.66a70.65,70.65,0,0,1,36-48.4" transform="translate(-51.81 -66.24)"/><path class="cls-11" d="M105.09,258.27c3,.49,15.83,3,15.83,3v17.31" transform="translate(-51.81 -66.24)"/><path class="cls-11" d="M490.67,274.05c11.6,23.84,42.12,36.51,67.19,27.9,3.79-1.3,7.53-3.09,10.22-6.05s4.15-7.3,2.84-11.09c-1.92-5.53-9.33-7.77-14.66-5.35s-8.46,8.29-9.1,14.11c-1.47,13.26,8.51,25.81,20.81,31s26.28,4.43,39.43,2.14" transform="translate(-51.81 -66.24)"/><polyline class="cls-11" points="538.04 250.41 555.59 260.48 542.98 275.95"/><path class="cls-11" d="M498.28,441.49c19.16-12.68,30.08-36.77,27-59.53" transform="translate(-51.81 -66.24)"/><polyline class="cls-11" points="466.55 324.83 473.46 315.72 480.98 324.25"/><path class="cls-11" d="M396.37,116.14c3.7,6.17,12.9,7,19.2,3.51s10.24-10,13.49-16.42c5.1-10.06-9.57-6.21-3.66,8,2.43,5.86,6.8,11.89,13.12,12.44,9,.78,14.44-9.22,19.72-16.55,3.61-5,8-15.11,13.81-16.09,8.81-1.48,9.12,11.31,10.07,14.82s3.24,7.22,6.85,7.65c4.34.51,7.48-3.79,10.62-6.83a23.92,23.92,0,0,1,27.09-3.88" transform="translate(-51.81 -66.24)"/></svg>