<svg id="Layer_1" data-name="Layer 1" xmlns="http://www.w3.org/2000/svg" viewBox="0 0 424.42 169.62"><defs><style>.cls-1{font-size:150px;font-family:BritannicBold, Britannic Bold;}</style></defs><text class="cls-1" transform="translate(140 125.02)">HAK</text><path d="M609.55,463.47h11v1.3H611v6.86h9v1.3h-9v8.74h-1.4Z" transform="translate(-469.67 -312.31)"/><path d="M625.23,473.17v8.5H623.8v-18.2h6.52c3.59,0,5.49,1.92,5.49,4.78a4.12,4.12,0,0,1-3.41,4.26c1.87.45,3.12,1.67,3.12,4.76v.7a12.1,12.1,0,0,0,.24,3.7h-1.43a12.13,12.13,0,0,1-.26-3.8v-.47c0-3-.89-4.23-4.37-4.23Zm0-1.31h4.39c3.2,0,4.68-1.19,4.68-3.58,0-2.24-1.46-3.51-4.29-3.51h-4.78Z" transform="translate(-469.67 -312.31)"/><path d="M655.41,472.44c0,5-2.65,9.49-8.27,9.49-5.12,0-8.11-4.14-8.11-9.36s2.89-9.36,8.3-9.36C652.32,463.21,655.41,467.13,655.41,472.44Zm-14.87.05c0,4.18,2.31,8.14,6.68,8.14,4.71,0,6.68-3.85,6.68-8.17s-2.23-7.95-6.63-7.95C642.59,464.51,640.54,468.38,640.54,472.49Z" transform="translate(-469.67 -312.31)"/><path d="M659.42,481.67v-18.2h2.08C664.33,467.83,671,478,672.13,480h0c-.16-2.63-.13-5.31-.13-8.27v-8.24h1.43v18.2h-1.93c-2.7-4.21-9.46-14.8-10.76-16.8h0c.13,2.39.11,5,.11,8.35v8.45Z" transform="translate(-469.67 -312.31)"/><path d="M682.45,464.77h-6.11v-1.3H690v1.3h-6.14v16.9h-1.43Z" transform="translate(-469.67 -312.31)"/><path d="M703.41,472.72h-9.29v7.65h10.17l-.21,1.3H692.72v-18.2h11.16v1.3h-9.76v6.65h9.29Z" transform="translate(-469.67 -312.31)"/><path d="M707.88,481.67v-18.2H710c2.83,4.36,9.49,14.53,10.63,16.51h0c-.16-2.63-.13-5.31-.13-8.27v-8.24h1.43v18.2H720c-2.71-4.21-9.47-14.8-10.77-16.8h0c.13,2.39.11,5,.11,8.35v8.45Z" transform="translate(-469.67 -312.31)"/><path d="M727.27,463.47h6c5,0,8.45,3.48,8.45,8.94s-3.38,9.26-8.48,9.26h-6Zm1.41,16.9h4.39c4.81,0,7.18-3.38,7.18-7.88,0-4-2.13-7.72-7.18-7.72h-4.39Z" transform="translate(-469.67 -312.31)"/><path d="M752.52,463.47h6c5,0,8.45,3.48,8.45,8.94s-3.38,9.26-8.47,9.26h-6Zm1.4,16.9h4.4c4.81,0,7.17-3.38,7.17-7.88,0-4-2.13-7.72-7.17-7.72h-4.4Z" transform="translate(-469.67 -312.31)"/><path d="M781.69,472.72h-9.28v7.65h10.17l-.21,1.3H771v-18.2h11.15v1.3h-9.75v6.65h9.28Z" transform="translate(-469.67 -312.31)"/><path d="M791.44,481.67l-6.76-18.2h1.51l3.54,9.51c1,2.76,2.15,5.8,2.54,7.33h.06c.39-1.35,1.63-4.55,2.65-7.22l3.66-9.62h1.49l-7,18.2Z" transform="translate(-469.67 -312.31)"/><path d="M813.91,472.72h-9.29v7.65h10.17l-.21,1.3H803.22v-18.2h11.15v1.3h-9.75v6.65h9.29Z" transform="translate(-469.67 -312.31)"/><path d="M818.38,463.47h1.4v16.9h9.78l-.26,1.3H818.38Z" transform="translate(-469.67 -312.31)"/><path d="M847.11,472.44c0,5-2.65,9.49-8.27,9.49-5.12,0-8.11-4.14-8.11-9.36s2.88-9.36,8.29-9.36C844,463.21,847.11,467.13,847.11,472.44Zm-14.88.05c0,4.18,2.32,8.14,6.69,8.14,4.7,0,6.68-3.85,6.68-8.17s-2.24-7.95-6.63-7.95C834.29,464.51,832.23,468.38,832.23,472.49Z" transform="translate(-469.67 -312.31)"/><path d="M851.11,463.47h6.5c3.33,0,5.62,1.84,5.62,5.07s-2.27,5.2-5.8,5.2h-4.89v7.93h-1.43Zm1.43,9h5c2.94,0,4.16-1.56,4.16-3.85,0-2.45-1.61-3.82-4.06-3.82h-5.12Z" transform="translate(-469.67 -312.31)"/><path d="M877.6,472.72h-9.28v7.65h10.17l-.21,1.3H866.92v-18.2h11.15v1.3h-9.75v6.65h9.28Z" transform="translate(-469.67 -312.31)"/><path d="M883.51,473.17v8.5h-1.43v-18.2h6.52c3.59,0,5.49,1.92,5.49,4.78a4.12,4.12,0,0,1-3.41,4.26c1.87.45,3.12,1.67,3.12,4.76v.7a12.1,12.1,0,0,0,.24,3.7h-1.43a12.13,12.13,0,0,1-.26-3.8v-.47c0-3-.89-4.23-4.37-4.23Zm0-1.31h4.39c3.2,0,4.68-1.19,4.68-3.58,0-2.24-1.46-3.51-4.29-3.51h-4.78Z" transform="translate(-469.67 -312.31)"/><path d="M585.5,366.05c.08-7.86-6.67-14.28-15.06-14.35s-15.26,6.24-15.33,14.1a14.39,14.39,0,0,0,11,13.81c-1.48,21.45-29.72,23.21-38.55,23.21-15.82.11-30.5,7.71-38.48,20.19V369c7.61-1.91,12.56-9.64,10.51-17.26s-10.3-12.25-18.44-10.34-13.08,9.64-11,17.26a15.16,15.16,0,0,0,10,10.34v67.16c1.06.12,1.06.25,0,.37h0v7.69a14.33,14.33,0,0,0-10,17.26c2,7.62,10.3,12.25,18.44,10.34s13.09-9.64,11-17.27a14.88,14.88,0,0,0-10.51-10.33v-5.5h0c-.13-1.18,9.74-28.38,38.3-28.38,22.06,0,45.5-8.14,46.67-30.72A14.44,14.44,0,0,0,585.5,366.05ZM475.65,355.31a7.77,7.77,0,1,1,7.75,7.26h0a7.48,7.48,0,0,1-7.75-7.18Zm17,102a7.78,7.78,0,1,1-7.81-7.22h.09A7.53,7.53,0,0,1,492.61,457.35ZM571,374.58a7.28,7.28,0,1,1,7.76-7.26v0a7.48,7.48,0,0,1-7.72,7.22Z" transform="translate(-469.67 -312.31)"/></svg>