<svg id="Layer_1" data-name="Layer 1" xmlns="http://www.w3.org/2000/svg" viewBox="0 0 470 380"><defs><style>.cls-1{font-size:150px;font-family:BritannicBold, Britannic Bold;}.cls-2{fill:none;stroke:#000;stroke-miterlimit:10;stroke-width:2px;}</style></defs><text class="cls-1" transform="translate(93.67 282.33)">HAK</text><path d="M818.55,657.47h11v1.3H820v6.86h9v1.3h-9v8.74h-1.4Z" transform="translate(-725 -349)"/><path d="M834.23,667.17v8.5H832.8v-18.2h6.52c3.59,0,5.49,1.92,5.49,4.78a4.12,4.12,0,0,1-3.41,4.26c1.87.45,3.12,1.67,3.12,4.76v.7a12.1,12.1,0,0,0,.24,3.7h-1.43a12.13,12.13,0,0,1-.26-3.8v-.47c0-3-.89-4.23-4.37-4.23Zm0-1.31h4.39c3.2,0,4.68-1.19,4.68-3.58s-1.46-3.51-4.29-3.51h-4.78Z" transform="translate(-725 -349)"/><path d="M864.41,666.44c0,5-2.65,9.49-8.27,9.49-5.12,0-8.11-4.14-8.11-9.36s2.89-9.36,8.3-9.36C861.32,657.21,864.41,661.13,864.41,666.44Zm-14.87,0c0,4.18,2.31,8.14,6.68,8.14,4.71,0,6.68-3.85,6.68-8.17s-2.23-8-6.63-8C851.59,658.51,849.54,662.38,849.54,666.49Z" transform="translate(-725 -349)"/><path d="M868.42,675.67v-18.2h2.08C873.33,661.83,880,672,881.13,674h0c-.16-2.63-.13-5.31-.13-8.27v-8.24h1.43v18.2h-1.93c-2.7-4.21-9.46-14.8-10.76-16.8h0c.13,2.39.11,5,.11,8.35v8.45Z" transform="translate(-725 -349)"/><path d="M891.45,658.77h-6.11v-1.3H899v1.3h-6.14v16.9h-1.43Z" transform="translate(-725 -349)"/><path d="M912.41,666.72h-9.29v7.65h10.17l-.21,1.3H901.72v-18.2h11.16v1.3h-9.76v6.65h9.29Z" transform="translate(-725 -349)"/><path d="M916.88,675.67v-18.2H919c2.83,4.36,9.49,14.53,10.63,16.51h0c-.16-2.63-.13-5.31-.13-8.27v-8.24h1.43v18.2H929c-2.71-4.21-9.47-14.8-10.77-16.8h0c.13,2.39.11,5,.11,8.35v8.45Z" transform="translate(-725 -349)"/><path d="M936.27,657.47h6c5,0,8.45,3.48,8.45,8.94s-3.38,9.26-8.48,9.26h-6Zm1.41,16.9h4.39c4.81,0,7.18-3.38,7.18-7.88,0-4-2.13-7.72-7.18-7.72h-4.39Z" transform="translate(-725 -349)"/><path d="M961.52,657.47h6c5,0,8.45,3.48,8.45,8.94s-3.38,9.26-8.47,9.26h-6Zm1.4,16.9h4.4c4.81,0,7.17-3.38,7.17-7.88,0-4-2.13-7.72-7.17-7.72h-4.4Z" transform="translate(-725 -349)"/><path d="M990.69,666.72h-9.28v7.65h10.17l-.21,1.3H980v-18.2h11.15v1.3h-9.75v6.65h9.28Z" transform="translate(-725 -349)"/><path d="M1000.44,675.67l-6.76-18.2h1.51l3.54,9.51c1,2.76,2.15,5.8,2.54,7.33h.06c.39-1.35,1.63-4.55,2.65-7.22l3.66-9.62h1.49l-7,18.2Z" transform="translate(-725 -349)"/><path d="M1022.91,666.72h-9.29v7.65h10.17l-.21,1.3h-11.36v-18.2h11.15v1.3h-9.75v6.65h9.29Z" transform="translate(-725 -349)"/><path d="M1027.38,657.47h1.4v16.9h9.78l-.26,1.3h-10.92Z" transform="translate(-725 -349)"/><path d="M1056.11,666.44c0,5-2.65,9.49-8.27,9.49-5.12,0-8.11-4.14-8.11-9.36s2.88-9.36,8.29-9.36C1053,657.21,1056.11,661.13,1056.11,666.44Zm-14.88,0c0,4.18,2.32,8.14,6.69,8.14,4.7,0,6.68-3.85,6.68-8.17s-2.24-8-6.63-8C1043.29,658.51,1041.23,662.38,1041.23,666.49Z" transform="translate(-725 -349)"/><path d="M1060.11,657.47h6.5c3.33,0,5.62,1.84,5.62,5.07s-2.27,5.2-5.8,5.2h-4.89v7.93h-1.43Zm1.43,9h5c2.94,0,4.16-1.56,4.16-3.85,0-2.45-1.61-3.82-4.06-3.82h-5.12Z" transform="translate(-725 -349)"/><path d="M1086.6,666.72h-9.28v7.65h10.17l-.21,1.3h-11.36v-18.2h11.15v1.3h-9.75v6.65h9.28Z" transform="translate(-725 -349)"/><path d="M1092.51,667.17v8.5h-1.43v-18.2h6.52c3.59,0,5.49,1.92,5.49,4.78a4.12,4.12,0,0,1-3.41,4.26c1.87.45,3.12,1.67,3.12,4.76v.7a12.1,12.1,0,0,0,.24,3.7h-1.43a12.13,12.13,0,0,1-.26-3.8v-.47c0-3-.89-4.23-4.37-4.23Zm0-1.31h4.39c3.2,0,4.68-1.19,4.68-3.58s-1.46-3.51-4.29-3.51h-4.78Z" transform="translate(-725 -349)"/><path d="M1040.5,415.14c.07-7.26-6.09-13.19-13.76-13.26s-13.94,5.77-14,13a13.26,13.26,0,0,0,10.08,12.76c-1.36,19.81-27.16,21.44-35.23,21.44-14.45.11-27.86,7.13-35.16,18.65V417.9A13.18,13.18,0,0,0,962,402c-1.87-7-9.41-11.32-16.85-9.55s-12,8.91-10.09,16a14,14,0,0,0,9.14,9.55v62c1,.11,1,.23,0,.35h0v7.09a13.26,13.26,0,0,0-9.14,15.95c1.87,7,9.41,11.32,16.85,9.55S963.89,504,962,496.93a13.71,13.71,0,0,0-9.61-9.55V482.3h0c-.11-1.08,8.9-26.21,35-26.21,20.16,0,41.58-7.52,42.65-28.38A13.3,13.3,0,0,0,1040.5,415.14Zm-100.37-9.92a7.1,7.1,0,1,1,7.09,6.71h0a6.88,6.88,0,0,1-7.09-6.63Zm15.5,94.26a7.1,7.1,0,1,1-7.13-6.67h.08A6.92,6.92,0,0,1,955.63,499.48ZM1027.26,423a6.72,6.72,0,1,1,7.09-6.71v0a6.87,6.87,0,0,1-7,6.67Z" transform="translate(-725 -349)"/><rect class="cls-2" x="1" y="1" width="468" height="378"/></svg>