<svg id="Layer_1" data-name="Layer 1" xmlns="http://www.w3.org/2000/svg" viewBox="0 0 367.75 121.28"><defs><style>.cls-1{isolation:isolate;}</style></defs><g class="cls-1"><path d="M175.37,240V138.12h14.41V240Zm3-43.91V182.46H239v13.63ZM227.22,240V138.12h14.4V240Z" transform="translate(-54.05 -121.36)"/><path d="M255,240l29.52-101.88h20.89L334.88,240H319.76l-24.2-89.54h-1.29L270.07,240Zm13.68-24.83V201.54h51.85v13.63Z" transform="translate(-54.05 -121.36)"/><path d="M348.92,240V138.12h14.41V240ZM358,207.57l1.29-14.21q11.1,0,19.16-4.62a39.26,39.26,0,0,0,13.28-12.49,57.85,57.85,0,0,0,7.78-17.72,81.19,81.19,0,0,0,2.56-20.41H416.9a85.69,85.69,0,0,1-4,26,71.48,71.48,0,0,1-11.52,22.27,55.14,55.14,0,0,1-18.51,15.46A53.34,53.34,0,0,1,358,207.57ZM404.37,240l-25.92-49.65,13-7.32,30.39,57Z" transform="translate(-54.05 -121.36)"/></g><path d="M159.87,144.53c.08-7.26-6.09-13.19-13.76-13.26s-13.94,5.77-14,13a13.27,13.27,0,0,0,10,12.76C140.8,176.87,115,178.5,106.94,178.5c-14.46.1-27.87,7.12-35.16,18.65v-49.9a13.15,13.15,0,0,0,9.6-15.94c-1.87-7-9.41-11.32-16.85-9.55s-12,8.9-10.05,15.94a13.91,13.91,0,0,0,9.14,9.55V209.3c1,.11,1,.23,0,.34h0v7.11a13.24,13.24,0,0,0-9.14,15.94c1.83,7,9.41,11.32,16.85,9.55s12-8.9,10-16a13.67,13.67,0,0,0-9.6-9.54v-5.09h0c-.12-1.09,8.9-26.21,35-26.21,20.16,0,41.57-7.52,42.64-28.38A13.3,13.3,0,0,0,159.87,144.53ZM59.51,134.61a7.1,7.1,0,1,1,7.55,6.69h-.47a6.85,6.85,0,0,1-7.08-6.63ZM75,228.84a7.11,7.11,0,1,1-7.6-6.65l.46,0H68a6.91,6.91,0,0,1,7,6.71Zm71.58-76.43a6.72,6.72,0,1,1,7.09-6.71h0a6.85,6.85,0,0,1-7.05,6.67Z" transform="translate(-54.05 -121.36)"/></svg>