<svg id="Layer_1" data-name="Layer 1" xmlns="http://www.w3.org/2000/svg" viewBox="0 0 284.54 295.93"><defs><style>.cls-1{font-size:150px;font-family:BritannicBold, Britannic Bold;}</style></defs><text class="cls-1" transform="translate(4.12 251.33)">HAK</text><path d="M794.55,640.47h11v1.3H796v6.86h9v1.3h-9v8.74h-1.4Z" transform="translate(-794.55 -363)"/><path d="M810.23,650.17v8.5H808.8v-18.2h6.52c3.59,0,5.49,1.92,5.49,4.78a4.12,4.12,0,0,1-3.41,4.26c1.87.45,3.12,1.67,3.12,4.76v.7a12.1,12.1,0,0,0,.24,3.7h-1.43a12.13,12.13,0,0,1-.26-3.8v-.47c0-3-.89-4.23-4.37-4.23Zm0-1.31h4.39c3.2,0,4.68-1.19,4.68-3.58s-1.46-3.51-4.29-3.51h-4.78Z" transform="translate(-794.55 -363)"/><path d="M840.41,649.44c0,5-2.65,9.49-8.27,9.49-5.12,0-8.11-4.14-8.11-9.36s2.89-9.36,8.3-9.36C837.32,640.21,840.41,644.13,840.41,649.44Zm-14.87,0c0,4.18,2.31,8.14,6.68,8.14,4.71,0,6.68-3.85,6.68-8.17s-2.23-8-6.63-8C827.59,641.51,825.54,645.38,825.54,649.49Z" transform="translate(-794.55 -363)"/><path d="M844.42,658.67v-18.2h2.08C849.33,644.83,856,655,857.13,657h0c-.16-2.63-.13-5.31-.13-8.27v-8.24h1.43v18.2h-1.93c-2.7-4.21-9.46-14.8-10.76-16.8h0c.13,2.39.11,5,.11,8.35v8.45Z" transform="translate(-794.55 -363)"/><path d="M867.45,641.77h-6.11v-1.3H875v1.3h-6.14v16.9h-1.43Z" transform="translate(-794.55 -363)"/><path d="M888.41,649.72h-9.29v7.65h10.17l-.21,1.3H877.72v-18.2h11.16v1.3h-9.76v6.65h9.29Z" transform="translate(-794.55 -363)"/><path d="M892.88,658.67v-18.2H895c2.83,4.36,9.49,14.53,10.63,16.51h0c-.16-2.63-.13-5.31-.13-8.27v-8.24h1.43v18.2H905c-2.71-4.21-9.47-14.8-10.77-16.8h0c.13,2.39.11,5,.11,8.35v8.45Z" transform="translate(-794.55 -363)"/><path d="M912.27,640.47h6c5,0,8.45,3.48,8.45,8.94s-3.38,9.26-8.48,9.26h-6Zm1.41,16.9h4.39c4.81,0,7.18-3.38,7.18-7.88,0-4-2.13-7.72-7.18-7.72h-4.39Z" transform="translate(-794.55 -363)"/><path d="M937.52,640.47h6c5,0,8.45,3.48,8.45,8.94s-3.38,9.26-8.47,9.26h-6Zm1.4,16.9h4.4c4.81,0,7.17-3.38,7.17-7.88,0-4-2.13-7.72-7.17-7.72h-4.4Z" transform="translate(-794.55 -363)"/><path d="M966.69,649.72h-9.28v7.65h10.17l-.21,1.3H956v-18.2h11.15v1.3h-9.75v6.65h9.28Z" transform="translate(-794.55 -363)"/><path d="M976.44,658.67l-6.76-18.2h1.51l3.54,9.51c1,2.76,2.15,5.8,2.54,7.33h.06c.39-1.35,1.63-4.55,2.65-7.22l3.66-9.62h1.49l-7,18.2Z" transform="translate(-794.55 -363)"/><path d="M998.91,649.72h-9.29v7.65h10.17l-.21,1.3H988.22v-18.2h11.15v1.3h-9.75v6.65h9.29Z" transform="translate(-794.55 -363)"/><path d="M1003.38,640.47h1.4v16.9h9.78l-.26,1.3h-10.92Z" transform="translate(-794.55 -363)"/><path d="M1032.11,649.44c0,5-2.65,9.49-8.27,9.49-5.12,0-8.11-4.14-8.11-9.36s2.88-9.36,8.29-9.36C1029,640.21,1032.11,644.13,1032.11,649.44Zm-14.88,0c0,4.18,2.32,8.14,6.69,8.14,4.7,0,6.68-3.85,6.68-8.17s-2.24-8-6.63-8C1019.29,641.51,1017.23,645.38,1017.23,649.49Z" transform="translate(-794.55 -363)"/><path d="M1036.11,640.47h6.5c3.33,0,5.62,1.84,5.62,5.07s-2.27,5.2-5.8,5.2h-4.89v7.93h-1.43Zm1.43,9h5c2.94,0,4.16-1.56,4.16-3.85,0-2.45-1.61-3.82-4.06-3.82h-5.12Z" transform="translate(-794.55 -363)"/><path d="M1062.6,649.72h-9.28v7.65h10.17l-.21,1.3h-11.36v-18.2h11.15v1.3h-9.75v6.65h9.28Z" transform="translate(-794.55 -363)"/><path d="M1068.51,650.17v8.5h-1.43v-18.2h6.52c3.59,0,5.49,1.92,5.49,4.78a4.12,4.12,0,0,1-3.41,4.26c1.87.45,3.12,1.67,3.12,4.76v.7a12.1,12.1,0,0,0,.24,3.7h-1.43a12.13,12.13,0,0,1-.26-3.8v-.47c0-3-.89-4.23-4.37-4.23Zm0-1.31h4.39c3.2,0,4.68-1.19,4.68-3.58s-1.46-3.51-4.29-3.51h-4.78Z" transform="translate(-794.55 -363)"/><path d="M1025.5,388.05c.08-7.86-6.67-14.28-15.06-14.35s-15.26,6.24-15.33,14.1a14.39,14.39,0,0,0,11,13.81c-1.48,21.45-29.72,23.21-38.55,23.21-15.82.11-30.5,7.71-38.48,20.19V391c7.61-1.91,12.56-9.64,10.51-17.26s-10.3-12.25-18.44-10.34-13.08,9.64-11,17.26a15.16,15.16,0,0,0,10,10.34v67.16c1.06.12,1.06.25,0,.37h0v7.69a14.33,14.33,0,0,0-10,17.26c2,7.62,10.3,12.25,18.44,10.34s13.09-9.64,11-17.27a14.88,14.88,0,0,0-10.51-10.33v-5.5h0c-.13-1.18,9.74-28.38,38.3-28.38,22.06,0,45.5-8.14,46.67-30.72A14.44,14.44,0,0,0,1025.5,388.05ZM915.65,377.31a7.77,7.77,0,1,1,7.75,7.26h0a7.48,7.48,0,0,1-7.75-7.18Zm17,102a7.78,7.78,0,1,1-7.81-7.22h.09A7.53,7.53,0,0,1,932.61,479.35Zm78.4-82.77a7.28,7.28,0,1,1,7.76-7.26v0a7.48,7.48,0,0,1-7.72,7.22Z" transform="translate(-794.55 -363)"/></svg>