<?xml version="1.0" encoding="utf-8"?>
<!-- Generator: Adobe Illustrator 25.4.1, SVG Export Plug-In . SVG Version: 6.00 Build 0)  -->
<svg version="1.1" id="Layer_1" xmlns="http://www.w3.org/2000/svg" xmlns:xlink="http://www.w3.org/1999/xlink" x="0px" y="0px"
	 viewBox="0 0 367.8 121.3" style="enable-background:new 0 0 367.8 121.3;" xml:space="preserve">
<g>
	<path d="M121.3,118.6V16.8h14.4v101.9H121.3z M124.3,74.7V61.1h60.6v13.6L124.3,74.7z M173.2,118.6V16.8h14.4v101.9H173.2z"/>
	<path d="M200.9,118.6l29.5-101.9h20.9l29.5,101.9h-15.1l-24.2-89.5h-1.3L216,118.6H200.9z M214.6,93.8V80.2h51.9v13.6H214.6z"/>
	<path d="M294.9,118.6V16.8h14.4v101.9H294.9z M304,86.2l1.3-14.2c7.4,0,13.8-1.5,19.2-4.6c5.3-3.1,9.9-7.3,13.3-12.5
		c3.6-5.4,6.2-11.4,7.8-17.7c1.7-6.7,2.6-13.5,2.6-20.4h14.8c0,8.8-1.3,17.6-4,26c-2.5,8-6.4,15.6-11.5,22.3
		c-5,6.5-11.3,11.7-18.5,15.5C321.1,84.4,312.6,86.3,304,86.2z M350.3,118.6L324.4,69l13-7.3l30.4,57L350.3,118.6z"/>
</g>
<path d="M105.8,23.2c0.1-7.3-6.1-13.2-13.8-13.3s-13.9,5.8-14,13c0,6,4.2,11.3,10,12.8C86.8,55.5,61,57.1,52.9,57.1
	C38.4,57.2,25,64.3,17.7,75.8V25.9c7-1.7,11.3-8.9,9.6-15.9c0,0,0,0,0,0c-1.9-7-9.4-11.3-16.8-9.6s-12,8.9-10,15.9
	c1.2,4.5,4.7,8.1,9.1,9.6v62.1c1,0.1,1,0.2,0,0.3l0,0v7.1c-6.8,2-10.9,9-9.1,15.9c1.8,7,9.4,11.3,16.9,9.6s12-8.9,10-16
	c-1.3-4.7-4.9-8.3-9.6-9.5v-5.1l0,0c-0.1-1.1,8.9-26.2,35-26.2c20.2,0,41.6-7.5,42.6-28.4C101.3,34.4,105.6,29.2,105.8,23.2z
	 M5.5,13.2C5.2,9.3,8.2,6,12.2,5.8s7.3,2.8,7.5,6.7c0.2,3.9-2.7,7.2-6.6,7.5h-0.5C8.8,20.1,5.6,17.1,5.5,13.2
	C5.5,13.3,5.5,13.3,5.5,13.2L5.5,13.2z M21,107.5c0.2,3.9-2.7,7.3-6.7,7.5c-3.9,0.2-7.3-2.7-7.5-6.7c-0.2-3.9,2.7-7.3,6.6-7.5h0.5
	H14C17.7,100.8,20.8,103.8,21,107.5L21,107.5z M92.5,31.1c-3.7-0.2-6.5-3.4-6.3-7.1s3.4-6.5,7.1-6.3c3.6,0.2,6.3,3.1,6.4,6.7l0,0
	C99.5,28.1,96.4,31.1,92.5,31.1C92.6,31,92.6,31,92.5,31.1L92.5,31.1z"/>
</svg>
