<svg id="Layer_2" data-name="Layer 2" xmlns="http://www.w3.org/2000/svg" viewBox="0 0 470 380"><defs><style>.cls-1{font-size:180px;font-family:ColonnaMT, Colonna MT;}.cls-1,.cls-2{fill:#fff;}.cls-3{fill:none;stroke:#fff;stroke-miterlimit:10;stroke-width:2px;}</style></defs><text class="cls-1" transform="translate(52.67 283.33)">HAK</text><path class="cls-2" d="M812.65,664.87h10.18v1.2h-8.89v6.33h8.33v1.2h-8.33v8.07h-1.29Z" transform="translate(-702.3 -350)"/><path class="cls-2" d="M827.12,673.82v7.85H825.8v-16.8h6c3.31,0,5.06,1.77,5.06,4.41a3.8,3.8,0,0,1-3.14,3.94c1.72.41,2.88,1.53,2.88,4.39v.65a11.33,11.33,0,0,0,.21,3.41h-1.32a11.33,11.33,0,0,1-.24-3.51v-.43c0-2.76-.81-3.91-4-3.91Zm0-1.2h4.06c3,0,4.32-1.11,4.32-3.31s-1.35-3.24-4-3.24h-4.42Z" transform="translate(-702.3 -350)"/><path class="cls-2" d="M855,673.15c0,4.58-2.45,8.76-7.64,8.76-4.73,0-7.49-3.82-7.49-8.64s2.67-8.64,7.66-8.64C852.13,664.63,855,668.25,855,673.15Zm-13.73,0c0,3.87,2.13,7.52,6.16,7.52,4.35,0,6.17-3.56,6.17-7.54s-2.06-7.34-6.12-7.34C843.15,665.83,841.26,669.4,841.26,673.19Z" transform="translate(-702.3 -350)"/><path class="cls-2" d="M858.68,681.67v-16.8h1.92c2.62,4,8.76,13.41,9.82,15.24h0c-.14-2.43-.12-4.9-.12-7.64v-7.6h1.32v16.8h-1.78c-2.49-3.89-8.73-13.66-9.93-15.51h0c.12,2.21.1,4.66.1,7.71v7.8Z" transform="translate(-702.3 -350)"/><path class="cls-2" d="M879.94,666.07H874.3v-1.2h12.63v1.2h-5.67v15.6h-1.32Z" transform="translate(-702.3 -350)"/><path class="cls-2" d="M899.29,673.41h-8.57v7.06h9.38l-.19,1.2H889.42v-16.8h10.3v1.2h-9v6.14h8.57Z" transform="translate(-702.3 -350)"/><path class="cls-2" d="M903.42,681.67v-16.8h1.92c2.61,4,8.76,13.41,9.81,15.24h0c-.15-2.43-.12-4.9-.12-7.64v-7.6h1.32v16.8H914.6c-2.5-3.89-8.74-13.66-9.94-15.51h0c.12,2.21.1,4.66.1,7.71v7.8Z" transform="translate(-702.3 -350)"/><path class="cls-2" d="M921.32,664.87h5.57c4.61,0,7.8,3.21,7.8,8.25s-3.12,8.55-7.83,8.55h-5.54Zm1.29,15.6h4.06c4.44,0,6.63-3.12,6.63-7.28,0-3.69-2-7.12-6.63-7.12h-4.06Z" transform="translate(-702.3 -350)"/><path class="cls-2" d="M944.62,664.87h5.57c4.61,0,7.8,3.21,7.8,8.25s-3.12,8.55-7.82,8.55h-5.55Zm1.3,15.6H950c4.44,0,6.62-3.12,6.62-7.28,0-3.69-2-7.12-6.62-7.12h-4.06Z" transform="translate(-702.3 -350)"/><path class="cls-2" d="M971.55,673.41H963v7.06h9.39l-.19,1.2H961.69v-16.8H972v1.2h-9v6.14h8.57Z" transform="translate(-702.3 -350)"/><path class="cls-2" d="M980.55,681.67l-6.24-16.8h1.39l3.27,8.78c.93,2.54,2,5.35,2.35,6.77h0c.36-1.25,1.51-4.2,2.44-6.67l3.39-8.88h1.37l-6.48,16.8Z" transform="translate(-702.3 -350)"/><path class="cls-2" d="M1001.29,673.41h-8.57v7.06h9.38l-.19,1.2H991.42v-16.8h10.3v1.2h-9v6.14h8.57Z" transform="translate(-702.3 -350)"/><path class="cls-2" d="M1005.41,664.87h1.3v15.6h9l-.24,1.2h-10.08Z" transform="translate(-702.3 -350)"/><path class="cls-2" d="M1031.93,673.15c0,4.58-2.44,8.76-7.63,8.76-4.73,0-7.49-3.82-7.49-8.64s2.67-8.64,7.66-8.64C1029.08,664.63,1031.93,668.25,1031.93,673.15Zm-13.72,0c0,3.87,2.13,7.52,6.16,7.52,4.35,0,6.17-3.56,6.17-7.54s-2.06-7.34-6.12-7.34C1020.1,665.83,1018.21,669.4,1018.21,673.19Z" transform="translate(-702.3 -350)"/><path class="cls-2" d="M1035.63,664.87h6c3.07,0,5.18,1.7,5.18,4.68s-2.08,4.8-5.35,4.8H1037v7.32h-1.32Zm1.32,8.28h4.63c2.71,0,3.84-1.44,3.84-3.56s-1.49-3.52-3.74-3.52H1037Z" transform="translate(-702.3 -350)"/><path class="cls-2" d="M1060.09,673.41h-8.57v7.06h9.38l-.19,1.2h-10.49v-16.8h10.3v1.2h-9v6.14h8.57Z" transform="translate(-702.3 -350)"/><path class="cls-2" d="M1065.53,673.82v7.85h-1.32v-16.8h6c3.31,0,5.06,1.77,5.06,4.41a3.8,3.8,0,0,1-3.14,3.94c1.73.41,2.88,1.53,2.88,4.39v.65a11.33,11.33,0,0,0,.21,3.41h-1.32a11.33,11.33,0,0,1-.24-3.51v-.43c0-2.76-.81-3.91-4-3.91Zm0-1.2h4.06c3,0,4.32-1.11,4.32-3.31s-1.34-3.24-4-3.24h-4.42Z" transform="translate(-702.3 -350)"/><path class="cls-2" d="M991.8,411.05c.07-7.86-6.67-14.28-15.07-14.35s-15.25,6.24-15.33,14.1a14.39,14.39,0,0,0,11,13.81c-1.48,21.45-29.72,23.21-38.56,23.21-15.81.11-30.49,7.71-38.48,20.19V414c7.62-1.91,12.56-9.64,10.52-17.26s-10.3-12.25-18.44-10.34-13.09,9.64-11,17.26a15.14,15.14,0,0,0,10,10.34v67.16c1.05.12,1.05.25,0,.37h0v7.69a14.32,14.32,0,0,0-10,17.26c2,7.62,10.3,12.25,18.44,10.34s13.08-9.64,11-17.27a14.89,14.89,0,0,0-10.52-10.33v-5.5h0c-.12-1.18,9.74-28.38,38.3-28.38,22.06,0,45.51-8.14,46.68-30.72A14.45,14.45,0,0,0,991.8,411.05ZM881.94,400.31a7.78,7.78,0,1,1,7.76,7.26h0a7.49,7.49,0,0,1-7.76-7.18Zm17,102a7.77,7.77,0,1,1-7.8-7.22h.09A7.51,7.51,0,0,1,898.9,502.35Zm78.41-82.77a7.28,7.28,0,1,1,7.75-7.26v0a7.47,7.47,0,0,1-7.71,7.22Z" transform="translate(-702.3 -350)"/><rect class="cls-3" x="1" y="1" width="468" height="378"/></svg>