<svg id="Layer_1" data-name="Layer 1" xmlns="http://www.w3.org/2000/svg" viewBox="0 0 367.81 121.27"><defs><style>.cls-1{fill:#fff;}</style></defs><path class="cls-1" d="M121.32,118.64V16.76h14.41V118.64Zm3-43.91V61.1H185V74.73Zm48.85,43.91V16.76h14.4V118.64Z" transform="translate(0.02 0)"/><path class="cls-1" d="M201,118.64,230.47,16.76h20.89l29.47,101.88H265.71L241.51,29.1h-1.29L216,118.64Zm13.68-24.83V80.18h51.85V93.81Z" transform="translate(0.02 0)"/><path class="cls-1" d="M294.87,118.64V16.76h14.41V118.64ZM304,86.21,305.24,72q11.1,0,19.16-4.62a39.2,39.2,0,0,0,13.28-12.49,57.89,57.89,0,0,0,7.78-17.72A80.8,80.8,0,0,0,348,16.76h14.83a85.9,85.9,0,0,1-4,26A71.65,71.65,0,0,1,347.33,65a55,55,0,0,1-18.51,15.46A53.41,53.41,0,0,1,304,86.21Zm46.37,32.43L324.4,69l13-7.32,30.39,57Z" transform="translate(0.02 0)"/><path class="cls-1" d="M105.82,23.17C105.9,15.91,99.73,10,92.06,9.91s-13.94,5.77-14,13a13.28,13.28,0,0,0,10,12.76C86.75,55.51,61,57.14,52.89,57.14c-14.46.1-27.87,7.12-35.16,18.65V25.89A13.15,13.15,0,0,0,27.33,10h0C25.46,3,17.92-1.37,10.48.4s-12,8.9-10,15.94a13.91,13.91,0,0,0,9.14,9.55V87.94c1,.11,1,.23,0,.34h0v7.11A13.23,13.23,0,0,0,.43,111.33c1.83,7,9.41,11.32,16.85,9.55s12-8.9,10-16a13.67,13.67,0,0,0-9.6-9.54V90.25h0c-.12-1.09,8.9-26.21,35-26.21,20.16,0,41.57-7.52,42.64-28.38A13.31,13.31,0,0,0,105.82,23.17ZM5.46,13.25A7.1,7.1,0,1,1,13,19.94h-.47a6.85,6.85,0,0,1-7.08-6.61v-.08ZM21,107.48a7.11,7.11,0,1,1-7.6-6.65H14a6.92,6.92,0,0,1,7,6.71ZM92.53,31.05a6.72,6.72,0,1,1,7.09-6.71h0a6.85,6.85,0,0,1-7,6.67h0Z" transform="translate(0.02 0)"/></svg>