<svg id="Layer_1" data-name="Layer 1" xmlns="http://www.w3.org/2000/svg" viewBox="0 0 105.77 121.24"><path d="M105.8,23.2C105.9,15.9,99.7,10,92,9.9s-13.9,5.8-14,13A13.36,13.36,0,0,0,88,35.7C86.8,55.5,61,57.1,52.9,57.1c-14.5.1-27.9,7.2-35.2,18.7V25.9A13.2,13.2,0,0,0,27.3,10h0C25.4,3,17.9-1.3,10.5.4S-1.5,9.3.5,16.3a14.12,14.12,0,0,0,9.1,9.6V88q1.5.15,0,.3h0v7.1A13.16,13.16,0,0,0,.5,111.3c1.8,7,9.4,11.3,16.9,9.6s12-8.9,10-16a13.38,13.38,0,0,0-9.6-9.5V90.3h0c-.1-1.1,8.9-26.2,35-26.2,20.2,0,41.6-7.5,42.6-28.4A13.32,13.32,0,0,0,105.8,23.2ZM5.5,13.2a6.92,6.92,0,0,1,6.7-7.4A7.11,7.11,0,0,1,13.1,20h-.5a6.93,6.93,0,0,1-7.1-6.8ZM21,107.5a7.11,7.11,0,1,1-7.6-6.7H14a7.1,7.1,0,0,1,7,6.7ZM92.5,31.1a6.71,6.71,0,1,1,7.2-6.7h0a7.15,7.15,0,0,1-7.2,6.7Z" transform="translate(-0.03 -0.03)"/></svg>